{
    "asset" : {
        "generator" : "Khronos glTF Blender I/O v3.2.43",
        "version" : "2.0"
    },
    "scene" : 0,
    "scenes" : [
        {
            "name" : "Scene",
            "nodes" : [
                0
            ]
        }
    ],
    "nodes" : [
        {
            "mesh" : 0,
            "name" : "Text",
            "rotation" : [
                0.7071068286895752,
                0,
                0,
                0.7071068286895752
            ]
        }
    ],
    "meshes" : [
        {
            "name" : "Text",
            "primitives" : [
                {
                    "attributes" : {
                        "POSITION" : 0,
                        "NORMAL" : 1,
                        "TEXCOORD_0" : 2
                    },
                    "indices" : 3
                }
            ]
        }
    ],
    "accessors" : [
        {
            "bufferView" : 0,
            "componentType" : 5126,
            "count" : 2120,
            "max" : [
                0.5194552540779114,
                0.05000000074505806,
                0.01653696410357952
            ],
            "min" : [
                0.031128404662013054,
                -0.05000000074505806,
                -0.6040856242179871
            ],
            "type" : "VEC3"
        },
        {
            "bufferView" : 1,
            "componentType" : 5126,
            "count" : 2120,
            "type" : "VEC3"
        },
        {
            "bufferView" : 2,
            "componentType" : 5126,
            "count" : 2120,
            "type" : "VEC2"
        },
        {
            "bufferView" : 3,
            "componentType" : 5123,
            "count" : 3888,
            "type" : "SCALAR"
        }
    ],
    "bufferViews" : [
        {
            "buffer" : 0,
            "byteLength" : 25440,
            "byteOffset" : 0
        },
        {
            "buffer" : 0,
            "byteLength" : 25440,
            "byteOffset" : 25440
        },
        {
            "buffer" : 0,
            "byteLength" : 16960,
            "byteOffset" : 50880
        },
        {
            "buffer" : 0,
            "byteLength" : 7776,
            "byteOffset" : 67840
        }
    ],
    "buffers" : [
        {
            "byteLength" : 75616,
            "uri" : "data:application/octet-stream;base64,"
        }
    ]
}
