{
    "asset" : {
        "generator" : "Khronos glTF Blender I/O v3.2.43",
        "version" : "2.0"
    },
    "scene" : 0,
    "scenes" : [
        {
            "name" : "Scene",
            "nodes" : [
                0
            ]
        }
    ],
    "nodes" : [
        {
            "mesh" : 0,
            "name" : "Text",
            "rotation" : [
                0.7071068286895752,
                0,
                0,
                0.7071068286895752
            ]
        }
    ],
    "meshes" : [
        {
            "name" : "Text",
            "primitives" : [
                {
                    "attributes" : {
                        "POSITION" : 0,
                        "NORMAL" : 1,
                        "TEXCOORD_0" : 2
                    },
                    "indices" : 3
                }
            ]
        }
    ],
    "accessors" : [
        {
            "bufferView" : 0,
            "componentType" : 5126,
            "count" : 1488,
            "max" : [
                0.2723735272884369,
                0.05000000074505806,
                0.009727626107633114
            ],
            "min" : [
                0,
                -0.05000000074505806,
                -0.6060311198234558
            ],
            "type" : "VEC3"
        },
        {
            "bufferView" : 1,
            "componentType" : 5126,
            "count" : 1488,
            "type" : "VEC3"
        },
        {
            "bufferView" : 2,
            "componentType" : 5126,
            "count" : 1488,
            "type" : "VEC2"
        },
        {
            "bufferView" : 3,
            "componentType" : 5123,
            "count" : 3036,
            "type" : "SCALAR"
        }
    ],
    "bufferViews" : [
        {
            "buffer" : 0,
            "byteLength" : 17856,
            "byteOffset" : 0
        },
        {
            "buffer" : 0,
            "byteLength" : 17856,
            "byteOffset" : 17856
        },
        {
            "buffer" : 0,
            "byteLength" : 11904,
            "byteOffset" : 35712
        },
        {
            "buffer" : 0,
            "byteLength" : 6072,
            "byteOffset" : 47616
        }
    ],
    "buffers" : [
        {
            "byteLength" : 53688,
            "uri" : "data:application/octet-stream;base64,"
        }
    ]
}
