{
    "asset" : {
        "generator" : "Khronos glTF Blender I/O v3.2.43",
        "version" : "2.0"
    },
    "scene" : 0,
    "scenes" : [
        {
            "name" : "Scene",
            "nodes" : [
                0
            ]
        }
    ],
    "nodes" : [
        {
            "mesh" : 0,
            "name" : "Text",
            "rotation" : [
                0.7071068286895752,
                0,
                0,
                0.7071068286895752
            ]
        }
    ],
    "meshes" : [
        {
            "name" : "Text",
            "primitives" : [
                {
                    "attributes" : {
                        "POSITION" : 0,
                        "NORMAL" : 1,
                        "TEXCOORD_0" : 2
                    },
                    "indices" : 3
                }
            ]
        }
    ],
    "accessors" : [
        {
            "bufferView" : 0,
            "componentType" : 5126,
            "count" : 2548,
            "max" : [
                0.37904980778694153,
                0.05000000074505806,
                0
            ],
            "min" : [
                0.014996757730841637,
                -0.05000000074505806,
                -0.6050583720207214
            ],
            "type" : "VEC3"
        },
        {
            "bufferView" : 1,
            "componentType" : 5126,
            "count" : 2548,
            "type" : "VEC3"
        },
        {
            "bufferView" : 2,
            "componentType" : 5126,
            "count" : 2548,
            "type" : "VEC2"
        },
        {
            "bufferView" : 3,
            "componentType" : 5123,
            "count" : 5208,
            "type" : "SCALAR"
        }
    ],
    "bufferViews" : [
        {
            "buffer" : 0,
            "byteLength" : 30576,
            "byteOffset" : 0
        },
        {
            "buffer" : 0,
            "byteLength" : 30576,
            "byteOffset" : 30576
        },
        {
            "buffer" : 0,
            "byteLength" : 20384,
            "byteOffset" : 61152
        },
        {
            "buffer" : 0,
            "byteLength" : 10416,
            "byteOffset" : 81536
        }
    ],
    "buffers" : [
        {
            "byteLength" : 91952,
            "uri" : "data:application/octet-stream;base64,"
        }
    ]
}
