{
    "asset" : {
        "generator" : "Khronos glTF Blender I/O v3.2.43",
        "version" : "2.0"
    },
    "scene" : 0,
    "scenes" : [
        {
            "name" : "Scene",
            "nodes" : [
                0
            ]
        }
    ],
    "nodes" : [
        {
            "mesh" : 0,
            "name" : "Text",
            "rotation" : [
                0.7071068286895752,
                0,
                0,
                0.7071068286895752
            ]
        }
    ],
    "meshes" : [
        {
            "name" : "Text",
            "primitives" : [
                {
                    "attributes" : {
                        "POSITION" : 0,
                        "NORMAL" : 1,
                        "TEXCOORD_0" : 2
                    },
                    "indices" : 3
                }
            ]
        }
    ],
    "accessors" : [
        {
            "bufferView" : 0,
            "componentType" : 5126,
            "count" : 3583,
            "max" : [
                0.3686770498752594,
                0.05000000074505806,
                0.005836575757712126
            ],
            "min" : [
                0.023346303030848503,
                -0.05000000074505806,
                -0.6050583720207214
            ],
            "type" : "VEC3"
        },
        {
            "bufferView" : 1,
            "componentType" : 5126,
            "count" : 3583,
            "type" : "VEC3"
        },
        {
            "bufferView" : 2,
            "componentType" : 5126,
            "count" : 3583,
            "type" : "VEC2"
        },
        {
            "bufferView" : 3,
            "componentType" : 5123,
            "count" : 6900,
            "type" : "SCALAR"
        }
    ],
    "bufferViews" : [
        {
            "buffer" : 0,
            "byteLength" : 42996,
            "byteOffset" : 0
        },
        {
            "buffer" : 0,
            "byteLength" : 42996,
            "byteOffset" : 42996
        },
        {
            "buffer" : 0,
            "byteLength" : 28664,
            "byteOffset" : 85992
        },
        {
            "buffer" : 0,
            "byteLength" : 13800,
            "byteOffset" : 114656
        }
    ],
    "buffers" : [
        {
            "byteLength" : 128456,
            "uri" : "data:application/octet-stream;base64,"
        }
    ]
}
