{
    "asset" : {
        "generator" : "Khronos glTF Blender I/O v3.2.43",
        "version" : "2.0"
    },
    "scene" : 0,
    "scenes" : [
        {
            "name" : "Scene",
            "nodes" : [
                0
            ]
        }
    ],
    "nodes" : [
        {
            "mesh" : 0,
            "name" : "Text",
            "rotation" : [
                0.7071068286895752,
                0,
                0,
                0.7071068286895752
            ]
        }
    ],
    "meshes" : [
        {
            "name" : "Text",
            "primitives" : [
                {
                    "attributes" : {
                        "POSITION" : 0,
                        "NORMAL" : 1,
                        "TEXCOORD_0" : 2
                    },
                    "indices" : 3
                }
            ]
        }
    ],
    "accessors" : [
        {
            "bufferView" : 0,
            "componentType" : 5126,
            "count" : 2540,
            "max" : [
                0.4474708139896393,
                0.05000000074505806,
                0.011673151515424252
            ],
            "min" : [
                0.0019455252913758159,
                -0.05000000074505806,
                -0.6108949184417725
            ],
            "type" : "VEC3"
        },
        {
            "bufferView" : 1,
            "componentType" : 5126,
            "count" : 2540,
            "type" : "VEC3"
        },
        {
            "bufferView" : 2,
            "componentType" : 5126,
            "count" : 2540,
            "type" : "VEC2"
        },
        {
            "bufferView" : 3,
            "componentType" : 5123,
            "count" : 4644,
            "type" : "SCALAR"
        }
    ],
    "bufferViews" : [
        {
            "buffer" : 0,
            "byteLength" : 30480,
            "byteOffset" : 0
        },
        {
            "buffer" : 0,
            "byteLength" : 30480,
            "byteOffset" : 30480
        },
        {
            "buffer" : 0,
            "byteLength" : 20320,
            "byteOffset" : 60960
        },
        {
            "buffer" : 0,
            "byteLength" : 9288,
            "byteOffset" : 81280
        }
    ],
    "buffers" : [
        {
            "byteLength" : 90568,
            "uri" : "data:application/octet-stream;base64,"
        }
    ]
}
