{
    "asset" : {
        "generator" : "Khronos glTF Blender I/O v3.2.43",
        "version" : "2.0"
    },
    "scene" : 0,
    "scenes" : [
        {
            "name" : "Scene",
            "nodes" : [
                0
            ]
        }
    ],
    "nodes" : [
        {
            "mesh" : 0,
            "name" : "Text",
            "rotation" : [
                0.7071068286895752,
                0,
                0,
                0.7071068286895752
            ]
        }
    ],
    "meshes" : [
        {
            "name" : "Text",
            "primitives" : [
                {
                    "attributes" : {
                        "POSITION" : 0,
                        "NORMAL" : 1,
                        "TEXCOORD_0" : 2
                    },
                    "indices" : 3
                }
            ]
        }
    ],
    "accessors" : [
        {
            "bufferView" : 0,
            "componentType" : 5126,
            "count" : 2020,
            "max" : [
                0.3910505771636963,
                0.05000000074505806,
                0.0077821011655032635
            ],
            "min" : [
                0.020428014919161797,
                -0.05000000074505806,
                -0.5992217659950256
            ],
            "type" : "VEC3"
        },
        {
            "bufferView" : 1,
            "componentType" : 5126,
            "count" : 2020,
            "type" : "VEC3"
        },
        {
            "bufferView" : 2,
            "componentType" : 5126,
            "count" : 2020,
            "type" : "VEC2"
        },
        {
            "bufferView" : 3,
            "componentType" : 5123,
            "count" : 3792,
            "type" : "SCALAR"
        }
    ],
    "bufferViews" : [
        {
            "buffer" : 0,
            "byteLength" : 24240,
            "byteOffset" : 0
        },
        {
            "buffer" : 0,
            "byteLength" : 24240,
            "byteOffset" : 24240
        },
        {
            "buffer" : 0,
            "byteLength" : 16160,
            "byteOffset" : 48480
        },
        {
            "buffer" : 0,
            "byteLength" : 7584,
            "byteOffset" : 64640
        }
    ],
    "buffers" : [
        {
            "byteLength" : 72224,
            "uri" : "data:application/octet-stream;base64,"
        }
    ]
}
