{
    "asset" : {
        "generator" : "Khronos glTF Blender I/O v3.2.43",
        "version" : "2.0"
    },
    "scene" : 0,
    "scenes" : [
        {
            "name" : "Scene",
            "nodes" : [
                0
            ]
        }
    ],
    "nodes" : [
        {
            "mesh" : 0,
            "name" : "Text",
            "rotation" : [
                0.7071068286895752,
                0,
                0,
                0.7071068286895752
            ]
        }
    ],
    "meshes" : [
        {
            "name" : "Text",
            "primitives" : [
                {
                    "attributes" : {
                        "POSITION" : 0,
                        "NORMAL" : 1,
                        "TEXCOORD_0" : 2
                    },
                    "indices" : 3
                }
            ]
        }
    ],
    "accessors" : [
        {
            "bufferView" : 0,
            "componentType" : 5126,
            "count" : 2728,
            "max" : [
                0.4912451505661011,
                0.05000000074505806,
                0.01750972680747509
            ],
            "min" : [
                0.011673151515424252,
                -0.05000000074505806,
                -0.6079766750335693
            ],
            "type" : "VEC3"
        },
        {
            "bufferView" : 1,
            "componentType" : 5126,
            "count" : 2728,
            "type" : "VEC3"
        },
        {
            "bufferView" : 2,
            "componentType" : 5126,
            "count" : 2728,
            "type" : "VEC2"
        },
        {
            "bufferView" : 3,
            "componentType" : 5123,
            "count" : 4896,
            "type" : "SCALAR"
        }
    ],
    "bufferViews" : [
        {
            "buffer" : 0,
            "byteLength" : 32736,
            "byteOffset" : 0
        },
        {
            "buffer" : 0,
            "byteLength" : 32736,
            "byteOffset" : 32736
        },
        {
            "buffer" : 0,
            "byteLength" : 21824,
            "byteOffset" : 65472
        },
        {
            "buffer" : 0,
            "byteLength" : 9792,
            "byteOffset" : 87296
        }
    ],
    "buffers" : [
        {
            "byteLength" : 97088,
            "uri" : "data:application/octet-stream;base64,"
        }
    ]
}
