{
    "asset" : {
        "generator" : "Khronos glTF Blender I/O v3.2.43",
        "version" : "2.0"
    },
    "scene" : 0,
    "scenes" : [
        {
            "name" : "Scene",
            "nodes" : [
                0
            ]
        }
    ],
    "nodes" : [
        {
            "mesh" : 0,
            "name" : "Text",
            "rotation" : [
                0.7071068286895752,
                0,
                0,
                0.7071068286895752
            ]
        }
    ],
    "meshes" : [
        {
            "name" : "Text",
            "primitives" : [
                {
                    "attributes" : {
                        "POSITION" : 0,
                        "NORMAL" : 1,
                        "TEXCOORD_0" : 2
                    },
                    "indices" : 3
                }
            ]
        }
    ],
    "accessors" : [
        {
            "bufferView" : 0,
            "componentType" : 5126,
            "count" : 4256,
            "max" : [
                0.5,
                0.05000000074505806,
                0.030155641958117485
            ],
            "min" : [
                0.01361867692321539,
                -0.05000000074505806,
                -0.6225680708885193
            ],
            "type" : "VEC3"
        },
        {
            "bufferView" : 1,
            "componentType" : 5126,
            "count" : 4256,
            "type" : "VEC3"
        },
        {
            "bufferView" : 2,
            "componentType" : 5126,
            "count" : 4256,
            "type" : "VEC2"
        },
        {
            "bufferView" : 3,
            "componentType" : 5123,
            "count" : 7500,
            "type" : "SCALAR"
        }
    ],
    "bufferViews" : [
        {
            "buffer" : 0,
            "byteLength" : 51072,
            "byteOffset" : 0
        },
        {
            "buffer" : 0,
            "byteLength" : 51072,
            "byteOffset" : 51072
        },
        {
            "buffer" : 0,
            "byteLength" : 34048,
            "byteOffset" : 102144
        },
        {
            "buffer" : 0,
            "byteLength" : 15000,
            "byteOffset" : 136192
        }
    ],
    "buffers" : [
        {
            "byteLength" : 151192,
            "uri" : "data:application/octet-stream;base64,"
        }
    ]
}
