{
    "asset" : {
        "generator" : "Khronos glTF Blender I/O v3.2.43",
        "version" : "2.0"
    },
    "scene" : 0,
    "scenes" : [
        {
            "name" : "Scene",
            "nodes" : [
                0
            ]
        }
    ],
    "nodes" : [
        {
            "mesh" : 0,
            "name" : "Text",
            "rotation" : [
                0.7071068286895752,
                0,
                0,
                0.7071068286895752
            ]
        }
    ],
    "meshes" : [
        {
            "name" : "Text",
            "primitives" : [
                {
                    "attributes" : {
                        "POSITION" : 0,
                        "NORMAL" : 1,
                        "TEXCOORD_0" : 2
                    },
                    "indices" : 3
                }
            ]
        }
    ],
    "accessors" : [
        {
            "bufferView" : 0,
            "componentType" : 5126,
            "count" : 3796,
            "max" : [
                0.533073902130127,
                0.05000000074505806,
                0.0077821011655032635
            ],
            "min" : [
                0.006228383164852858,
                -0.05000000074505806,
                -0.6147859692573547
            ],
            "type" : "VEC3"
        },
        {
            "bufferView" : 1,
            "componentType" : 5126,
            "count" : 3796,
            "type" : "VEC3"
        },
        {
            "bufferView" : 2,
            "componentType" : 5126,
            "count" : 3796,
            "type" : "VEC2"
        },
        {
            "bufferView" : 3,
            "componentType" : 5123,
            "count" : 6912,
            "type" : "SCALAR"
        }
    ],
    "bufferViews" : [
        {
            "buffer" : 0,
            "byteLength" : 45552,
            "byteOffset" : 0
        },
        {
            "buffer" : 0,
            "byteLength" : 45552,
            "byteOffset" : 45552
        },
        {
            "buffer" : 0,
            "byteLength" : 30368,
            "byteOffset" : 91104
        },
        {
            "buffer" : 0,
            "byteLength" : 13824,
            "byteOffset" : 121472
        }
    ],
    "buffers" : [
        {
            "byteLength" : 135296,
            "uri" : "data:application/octet-stream;base64,"
        }
    ]
}
