{
    "asset" : {
        "generator" : "Khronos glTF Blender I/O v3.2.43",
        "version" : "2.0"
    },
    "scene" : 0,
    "scenes" : [
        {
            "name" : "Scene",
            "nodes" : [
                0
            ]
        }
    ],
    "nodes" : [
        {
            "mesh" : 0,
            "name" : "Text",
            "rotation" : [
                0.7071068286895752,
                0,
                0,
                0.7071068286895752
            ]
        }
    ],
    "meshes" : [
        {
            "name" : "Text",
            "primitives" : [
                {
                    "attributes" : {
                        "POSITION" : 0,
                        "NORMAL" : 1,
                        "TEXCOORD_0" : 2
                    },
                    "indices" : 3
                }
            ]
        }
    ],
    "accessors" : [
        {
            "bufferView" : 0,
            "componentType" : 5126,
            "count" : 5356,
            "max" : [
                0.6167315244674683,
                0.05000000074505806,
                0.01848248951137066
            ],
            "min" : [
                0.015564202331006527,
                -0.05000000074505806,
                -0.6147859692573547
            ],
            "type" : "VEC3"
        },
        {
            "bufferView" : 1,
            "componentType" : 5126,
            "count" : 5356,
            "type" : "VEC3"
        },
        {
            "bufferView" : 2,
            "componentType" : 5126,
            "count" : 5356,
            "type" : "VEC2"
        },
        {
            "bufferView" : 3,
            "componentType" : 5123,
            "count" : 9504,
            "type" : "SCALAR"
        }
    ],
    "bufferViews" : [
        {
            "buffer" : 0,
            "byteLength" : 64272,
            "byteOffset" : 0
        },
        {
            "buffer" : 0,
            "byteLength" : 64272,
            "byteOffset" : 64272
        },
        {
            "buffer" : 0,
            "byteLength" : 42848,
            "byteOffset" : 128544
        },
        {
            "buffer" : 0,
            "byteLength" : 19008,
            "byteOffset" : 171392
        }
    ],
    "buffers" : [
        {
            "byteLength" : 190400,
            "uri" : "data:application/octet-stream;base64,"
        }
    ]
}
