{
	"asset":{
		"generator":"Khronos glTF Blender I/O v4.0.44",
		"version":"2.0"
	},
	"scene":0,
	"scenes":[
		{
			"name":"Scene",
			"nodes":[
				0
			]
		}
	],
	"nodes":[
		{
			"mesh":0,
			"name":"Text",
			"rotation":[
				0.7071068286895752,
				0,
				0,
				0.7071068286895752
			],
			"translation":[
				0.3335000276565552,
				0.34300002455711365,
				0
			]
		}
	],
	"meshes":[
		{
			"name":"Text",
			"primitives":[
				{
					"attributes":{
						"POSITION":0,
						"NORMAL":1,
						"TEXCOORD_0":2
					},
					"indices":3
				}
			]
		}
	],
	"accessors":[
		{
			"bufferView":0,
			"componentType":5126,
			"count":722,
			"max":[
				-0.1798035353422165,
				0.05999999865889549,
				-0.142408549785614
			],
			"min":[
				-0.31599029898643494,
				-0.05999999865889549,
				-0.32626065611839294
			],
			"type":"VEC3"
		},
		{
			"bufferView":1,
			"componentType":5126,
			"count":722,
			"type":"VEC3"
		},
		{
			"bufferView":2,
			"componentType":5126,
			"count":722,
			"type":"VEC2"
		},
		{
			"bufferView":3,
			"componentType":5123,
			"count":2148,
			"type":"SCALAR"
		}
	],
	"bufferViews":[
		{
			"buffer":0,
			"byteLength":8664,
			"byteOffset":0,
			"target":34962
		},
		{
			"buffer":0,
			"byteLength":8664,
			"byteOffset":8664,
			"target":34962
		},
		{
			"buffer":0,
			"byteLength":5776,
			"byteOffset":17328,
			"target":34962
		},
		{
			"buffer":0,
			"byteLength":4296,
			"byteOffset":23104,
			"target":34963
		}
	],
	"buffers":[
		{
			"byteLength":27400,
			"uri":"Apo.bin"
		}
	]
}
