{
    "asset" : {
        "generator" : "Khronos glTF Blender I/O v3.2.43",
        "version" : "2.0"
    },
    "scene" : 0,
    "scenes" : [
        {
            "name" : "Scene",
            "nodes" : [
                0
            ]
        }
    ],
    "nodes" : [
        {
            "mesh" : 0,
            "name" : "Text",
            "rotation" : [
                0.7071068286895752,
                0,
                0,
                0.7071068286895752
            ]
        }
    ],
    "meshes" : [
        {
            "name" : "Text",
            "primitives" : [
                {
                    "attributes" : {
                        "POSITION" : 0,
                        "NORMAL" : 1,
                        "TEXCOORD_0" : 2
                    },
                    "indices" : 3
                }
            ]
        }
    ],
    "accessors" : [
        {
            "bufferView" : 0,
            "componentType" : 5126,
            "count" : 6118,
            "max" : [
                0.701361894607544,
                0.05000000074505806,
                0.05350194498896599
            ],
            "min" : [
                0.01264591421931982,
                -0.05000000074505806,
                -0.637159526348114
            ],
            "type" : "VEC3"
        },
        {
            "bufferView" : 1,
            "componentType" : 5126,
            "count" : 6118,
            "type" : "VEC3"
        },
        {
            "bufferView" : 2,
            "componentType" : 5126,
            "count" : 6118,
            "type" : "VEC2"
        },
        {
            "bufferView" : 3,
            "componentType" : 5123,
            "count" : 11100,
            "type" : "SCALAR"
        }
    ],
    "bufferViews" : [
        {
            "buffer" : 0,
            "byteLength" : 73416,
            "byteOffset" : 0
        },
        {
            "buffer" : 0,
            "byteLength" : 73416,
            "byteOffset" : 73416
        },
        {
            "buffer" : 0,
            "byteLength" : 48944,
            "byteOffset" : 146832
        },
        {
            "buffer" : 0,
            "byteLength" : 22200,
            "byteOffset" : 195776
        }
    ],
    "buffers" : [
        {
            "byteLength" : 217976,
            "uri" : "data:application/octet-stream;base64,"
        }
    ]
}
