{
	"asset":{
		"generator":"Khronos glTF Blender I/O v3.6.27",
		"version":"2.0"
	},
	"scene":0,
	"scenes":[
		{
			"name":"Scene",
			"nodes":[
				0
			]
		}
	],
	"nodes":[
		{
			"mesh":0,
			"name":"Text",
			"rotation":[
				0.7071068286895752,
				0,
				0,
				0.7071068286895752
			],
			"translation":[
				0.3335000276565552,
				0.34300002455711365,
				0
			]
		}
	],
	"meshes":[
		{
			"name":"Text",
			"primitives":[
				{
					"attributes":{
						"POSITION":0,
						"NORMAL":1,
						"TEXCOORD_0":2
					},
					"indices":3
				}
			]
		}
	],
	"accessors":[
		{
			"bufferView":0,
			"componentType":5126,
			"count":2614,
			"max":[
				0.15190854668617249,
				0.05999999865889549,
				0.35272765159606934
			],
			"min":[
				-0.31501755118370056,
				-0.05999999865889549,
				-0.27567699551582336
			],
			"type":"VEC3"
		},
		{
			"bufferView":1,
			"componentType":5126,
			"count":2614,
			"type":"VEC3"
		},
		{
			"bufferView":2,
			"componentType":5126,
			"count":2614,
			"type":"VEC2"
		},
		{
			"bufferView":3,
			"componentType":5123,
			"count":7836,
			"type":"SCALAR"
		}
	],
	"bufferViews":[
		{
			"buffer":0,
			"byteLength":31368,
			"byteOffset":0,
			"target":34962
		},
		{
			"buffer":0,
			"byteLength":31368,
			"byteOffset":31368,
			"target":34962
		},
		{
			"buffer":0,
			"byteLength":20912,
			"byteOffset":62736,
			"target":34962
		},
		{
			"buffer":0,
			"byteLength":15672,
			"byteOffset":83648,
			"target":34963
		}
	],
	"buffers":[
		{
			"byteLength":99320,
			"uri":"B.bin"
		}
	]
}
