{
    "asset" : {
        "generator" : "Khronos glTF Blender I/O v3.2.43",
        "version" : "2.0"
    },
    "scene" : 0,
    "scenes" : [
        {
            "name" : "Scene",
            "nodes" : [
                0
            ]
        }
    ],
    "nodes" : [
        {
            "mesh" : 0,
            "name" : "Text",
            "rotation" : [
                0.7071068286895752,
                0,
                0,
                0.7071068286895752
            ]
        }
    ],
    "meshes" : [
        {
            "name" : "Text",
            "primitives" : [
                {
                    "attributes" : {
                        "POSITION" : 0,
                        "NORMAL" : 1,
                        "TEXCOORD_0" : 2
                    },
                    "indices" : 3
                }
            ]
        }
    ],
    "accessors" : [
        {
            "bufferView" : 0,
            "componentType" : 5126,
            "count" : 2398,
            "max" : [
                0.3887402415275574,
                0.05000000074505806,
                0.01848248951137066
            ],
            "min" : [
                0.01264591421931982,
                -0.05000000074505806,
                -0.6157587766647339
            ],
            "type" : "VEC3"
        },
        {
            "bufferView" : 1,
            "componentType" : 5126,
            "count" : 2398,
            "type" : "VEC3"
        },
        {
            "bufferView" : 2,
            "componentType" : 5126,
            "count" : 2398,
            "type" : "VEC2"
        },
        {
            "bufferView" : 3,
            "componentType" : 5123,
            "count" : 4320,
            "type" : "SCALAR"
        }
    ],
    "bufferViews" : [
        {
            "buffer" : 0,
            "byteLength" : 28776,
            "byteOffset" : 0
        },
        {
            "buffer" : 0,
            "byteLength" : 28776,
            "byteOffset" : 28776
        },
        {
            "buffer" : 0,
            "byteLength" : 19184,
            "byteOffset" : 57552
        },
        {
            "buffer" : 0,
            "byteLength" : 8640,
            "byteOffset" : 76736
        }
    ],
    "buffers" : [
        {
            "byteLength" : 85376,
            "uri" : "data:application/octet-stream;base64,"
        }
    ]
}
