{
    "asset" : {
        "generator" : "Khronos glTF Blender I/O v3.2.43",
        "version" : "2.0"
    },
    "scene" : 0,
    "scenes" : [
        {
            "name" : "Scene",
            "nodes" : [
                0
            ]
        }
    ],
    "nodes" : [
        {
            "mesh" : 0,
            "name" : "Text",
            "rotation" : [
                0.7071068286895752,
                0,
                0,
                0.7071068286895752
            ]
        }
    ],
    "meshes" : [
        {
            "name" : "Text",
            "primitives" : [
                {
                    "attributes" : {
                        "POSITION" : 0,
                        "NORMAL" : 1,
                        "TEXCOORD_0" : 2
                    },
                    "indices" : 3
                }
            ]
        }
    ],
    "accessors" : [
        {
            "bufferView" : 0,
            "componentType" : 5126,
            "count" : 1014,
            "max" : [
                0.22665369510650635,
                0.05000000074505806,
                0.06225680932402611
            ],
            "min" : [
                0.01848248951137066,
                -0.05000000074505806,
                -0.1721789836883545
            ],
            "type" : "VEC3"
        },
        {
            "bufferView" : 1,
            "componentType" : 5126,
            "count" : 1014,
            "type" : "VEC3"
        },
        {
            "bufferView" : 2,
            "componentType" : 5126,
            "count" : 1014,
            "type" : "VEC2"
        },
        {
            "bufferView" : 3,
            "componentType" : 5123,
            "count" : 1860,
            "type" : "SCALAR"
        }
    ],
    "bufferViews" : [
        {
            "buffer" : 0,
            "byteLength" : 12168,
            "byteOffset" : 0
        },
        {
            "buffer" : 0,
            "byteLength" : 12168,
            "byteOffset" : 12168
        },
        {
            "buffer" : 0,
            "byteLength" : 8112,
            "byteOffset" : 24336
        },
        {
            "buffer" : 0,
            "byteLength" : 3720,
            "byteOffset" : 32448
        }
    ],
    "buffers" : [
        {
            "byteLength" : 36168,
            "uri" : "data:application/octet-stream;base64,"
        }
    ]
}
