{
    "asset" : {
        "generator" : "Khronos glTF Blender I/O v3.2.43",
        "version" : "2.0"
    },
    "scene" : 0,
    "scenes" : [
        {
            "name" : "Scene",
            "nodes" : [
                0
            ]
        }
    ],
    "nodes" : [
        {
            "mesh" : 0,
            "name" : "Text",
            "rotation" : [
                0.7071068286895752,
                0,
                0,
                0.7071068286895752
            ]
        }
    ],
    "meshes" : [
        {
            "name" : "Text",
            "primitives" : [
                {
                    "attributes" : {
                        "POSITION" : 0,
                        "NORMAL" : 1,
                        "TEXCOORD_0" : 2
                    },
                    "indices" : 3
                }
            ]
        }
    ],
    "accessors" : [
        {
            "bufferView" : 0,
            "componentType" : 5126,
            "count" : 2208,
            "max" : [
                0.5204280018806458,
                0.05000000074505806,
                0.006353355944156647
            ],
            "min" : [
                0.020049719139933586,
                -0.05000000074505806,
                -0.6157587766647339
            ],
            "type" : "VEC3"
        },
        {
            "bufferView" : 1,
            "componentType" : 5126,
            "count" : 2208,
            "type" : "VEC3"
        },
        {
            "bufferView" : 2,
            "componentType" : 5126,
            "count" : 2208,
            "type" : "VEC2"
        },
        {
            "bufferView" : 3,
            "componentType" : 5123,
            "count" : 4212,
            "type" : "SCALAR"
        }
    ],
    "bufferViews" : [
        {
            "buffer" : 0,
            "byteLength" : 26496,
            "byteOffset" : 0
        },
        {
            "buffer" : 0,
            "byteLength" : 26496,
            "byteOffset" : 26496
        },
        {
            "buffer" : 0,
            "byteLength" : 17664,
            "byteOffset" : 52992
        },
        {
            "buffer" : 0,
            "byteLength" : 8424,
            "byteOffset" : 70656
        }
    ],
    "buffers" : [
        {
            "byteLength" : 79080,
            "uri" : "data:application/octet-stream;base64,"
        }
    ]
}
