{
    "asset" : {
        "generator" : "Khronos glTF Blender I/O v3.2.43",
        "version" : "2.0"
    },
    "scene" : 0,
    "scenes" : [
        {
            "name" : "Scene",
            "nodes" : [
                0
            ]
        }
    ],
    "nodes" : [
        {
            "mesh" : 0,
            "name" : "Text",
            "rotation" : [
                0.7071068286895752,
                0,
                0,
                0.7071068286895752
            ]
        }
    ],
    "meshes" : [
        {
            "name" : "Text",
            "primitives" : [
                {
                    "attributes" : {
                        "POSITION" : 0,
                        "NORMAL" : 1,
                        "TEXCOORD_0" : 2
                    },
                    "indices" : 3
                }
            ]
        }
    ],
    "accessors" : [
        {
            "bufferView" : 0,
            "componentType" : 5126,
            "count" : 4863,
            "max" : [
                0.41342413425445557,
                0.05000000074505806,
                0.050826843827962875
            ],
            "min" : [
                0.03404669091105461,
                -0.05000000074505806,
                -0.6508591175079346
            ],
            "type" : "VEC3"
        },
        {
            "bufferView" : 1,
            "componentType" : 5126,
            "count" : 4863,
            "type" : "VEC3"
        },
        {
            "bufferView" : 2,
            "componentType" : 5126,
            "count" : 4863,
            "type" : "VEC2"
        },
        {
            "bufferView" : 3,
            "componentType" : 5123,
            "count" : 8676,
            "type" : "SCALAR"
        }
    ],
    "bufferViews" : [
        {
            "buffer" : 0,
            "byteLength" : 58356,
            "byteOffset" : 0
        },
        {
            "buffer" : 0,
            "byteLength" : 58356,
            "byteOffset" : 58356
        },
        {
            "buffer" : 0,
            "byteLength" : 38904,
            "byteOffset" : 116712
        },
        {
            "buffer" : 0,
            "byteLength" : 17352,
            "byteOffset" : 155616
        }
    ],
    "buffers" : [
        {
            "byteLength" : 172968,
            "uri" : "data:application/octet-stream;base64,"
        }
    ]
}
