{
    "asset" : {
        "generator" : "Khronos glTF Blender I/O v3.2.43",
        "version" : "2.0"
    },
    "scene" : 0,
    "scenes" : [
        {
            "name" : "Scene",
            "nodes" : [
                0
            ]
        }
    ],
    "nodes" : [
        {
            "mesh" : 0,
            "name" : "Text",
            "rotation" : [
                0.7071068286895752,
                0,
                0,
                0.7071068286895752
            ]
        }
    ],
    "meshes" : [
        {
            "name" : "Text",
            "primitives" : [
                {
                    "attributes" : {
                        "POSITION" : 0,
                        "NORMAL" : 1,
                        "TEXCOORD_0" : 2
                    },
                    "indices" : 3
                }
            ]
        }
    ],
    "accessors" : [
        {
            "bufferView" : 0,
            "componentType" : 5126,
            "count" : 2766,
            "max" : [
                0.41147860884666443,
                0.05000000074505806,
                0.008754863403737545
            ],
            "min" : [
                0.01848248951137066,
                -0.05000000074505806,
                -0.5992217659950256
            ],
            "type" : "VEC3"
        },
        {
            "bufferView" : 1,
            "componentType" : 5126,
            "count" : 2766,
            "type" : "VEC3"
        },
        {
            "bufferView" : 2,
            "componentType" : 5126,
            "count" : 2766,
            "type" : "VEC2"
        },
        {
            "bufferView" : 3,
            "componentType" : 5123,
            "count" : 5088,
            "type" : "SCALAR"
        }
    ],
    "bufferViews" : [
        {
            "buffer" : 0,
            "byteLength" : 33192,
            "byteOffset" : 0
        },
        {
            "buffer" : 0,
            "byteLength" : 33192,
            "byteOffset" : 33192
        },
        {
            "buffer" : 0,
            "byteLength" : 22128,
            "byteOffset" : 66384
        },
        {
            "buffer" : 0,
            "byteLength" : 10176,
            "byteOffset" : 88512
        }
    ],
    "buffers" : [
        {
            "byteLength" : 98688,
            "uri" : "data:application/octet-stream;base64,"
        }
    ]
}
