{
	"asset":{
		"generator":"Khronos glTF Blender I/O v3.6.27",
		"version":"2.0"
	},
	"extensionsUsed":[
		"KHR_materials_transmission",
		"KHR_materials_emissive_strength",
		"KHR_materials_specular",
		"KHR_materials_ior"
	],
	"scene":0,
	"scenes":[
		{
			"name":"Scene",
			"nodes":[
				0,
				1
			]
		}
	],
	"nodes":[
		{
			"mesh":0,
			"name":"Cube",
			"scale":[
				0.6092446446418762,
				0.6092446446418762,
				0.6092446446418762
			]
		},
		{
			"mesh":1,
			"name":"Plane",
			"scale":[
				-4.574717044830322,
				-4.574717044830322,
				-4.574717044830322
			]
		}
	],
	"materials":[
		{
			"doubleSided":true,
			"emissiveFactor":[
				1,
				0.27050653100013733,
				0.00508280610665679
			],
			"extensions":{
				"KHR_materials_transmission":{
					"transmissionFactor":0.15748031437397003
				},
				"KHR_materials_emissive_strength":{
					"emissiveStrength":500
				},
				"KHR_materials_specular":{
					"specularColorFactor":[
						0.4841262454924762,
						0.20626031845045106,
						0.1989558860140911
					]
				},
				"KHR_materials_ior":{
					"ior":3.8499999046325684
				}
			},
			"name":"Material.001",
			"pbrMetallicRoughness":{
				"baseColorFactor":[
					0.8000000715255737,
					0.02336491271853447,
					0.0029490268789231777,
					1
				],
				"metallicFactor":0.25196850299835205,
				"roughnessFactor":0.5
			}
		},
		{
			"doubleSided":true,
			"name":"Material.002",
			"pbrMetallicRoughness":{
				"baseColorFactor":[
					0.4055388867855072,
					0.8000000715255737,
					0.12336079776287079,
					1
				],
				"metallicFactor":0,
				"roughnessFactor":0.5
			}
		}
	],
	"meshes":[
		{
			"name":"Cube.001",
			"primitives":[
				{
					"attributes":{
						"POSITION":0,
						"NORMAL":1,
						"TEXCOORD_0":2
					},
					"indices":3,
					"material":0
				}
			]
		},
		{
			"name":"Plane",
			"primitives":[
				{
					"attributes":{
						"POSITION":4,
						"NORMAL":5,
						"TEXCOORD_0":6
					},
					"indices":7,
					"material":1
				}
			]
		}
	],
	"accessors":[
		{
			"bufferView":0,
			"componentType":5126,
			"count":24,
			"max":[
				1,
				1,
				1
			],
			"min":[
				-1,
				-1,
				-1
			],
			"type":"VEC3"
		},
		{
			"bufferView":1,
			"componentType":5126,
			"count":24,
			"type":"VEC3"
		},
		{
			"bufferView":2,
			"componentType":5126,
			"count":24,
			"type":"VEC2"
		},
		{
			"bufferView":3,
			"componentType":5123,
			"count":36,
			"type":"SCALAR"
		},
		{
			"bufferView":4,
			"componentType":5126,
			"count":4,
			"max":[
				1,
				0,
				1
			],
			"min":[
				-1,
				0,
				-1
			],
			"type":"VEC3"
		},
		{
			"bufferView":5,
			"componentType":5126,
			"count":4,
			"type":"VEC3"
		},
		{
			"bufferView":6,
			"componentType":5126,
			"count":4,
			"type":"VEC2"
		},
		{
			"bufferView":7,
			"componentType":5123,
			"count":6,
			"type":"SCALAR"
		}
	],
	"bufferViews":[
		{
			"buffer":0,
			"byteLength":288,
			"byteOffset":0,
			"target":34962
		},
		{
			"buffer":0,
			"byteLength":288,
			"byteOffset":288,
			"target":34962
		},
		{
			"buffer":0,
			"byteLength":192,
			"byteOffset":576,
			"target":34962
		},
		{
			"buffer":0,
			"byteLength":72,
			"byteOffset":768,
			"target":34963
		},
		{
			"buffer":0,
			"byteLength":48,
			"byteOffset":840,
			"target":34962
		},
		{
			"buffer":0,
			"byteLength":48,
			"byteOffset":888,
			"target":34962
		},
		{
			"buffer":0,
			"byteLength":32,
			"byteOffset":936,
			"target":34962
		},
		{
			"buffer":0,
			"byteLength":12,
			"byteOffset":968,
			"target":34963
		}
	],
	"buffers":[
		{
			"byteLength":980,
			"uri":"data:application/octet-stream;base64,"
		}
	]
}
