{
    "asset" : {
        "generator" : "Khronos glTF Blender I/O v3.2.43",
        "version" : "2.0"
    },
    "scene" : 0,
    "scenes" : [
        {
            "name" : "Scene",
            "nodes" : [
                0
            ]
        }
    ],
    "nodes" : [
        {
            "mesh" : 0,
            "name" : "Text",
            "rotation" : [
                0.7071068286895752,
                0,
                0,
                0.7071068286895752
            ]
        }
    ],
    "meshes" : [
        {
            "name" : "Text",
            "primitives" : [
                {
                    "attributes" : {
                        "POSITION" : 0,
                        "NORMAL" : 1,
                        "TEXCOORD_0" : 2
                    },
                    "indices" : 3
                }
            ]
        }
    ],
    "accessors" : [
        {
            "bufferView" : 0,
            "componentType" : 5126,
            "count" : 2545,
            "max" : [
                0.3779216408729553,
                0.05000000074505806,
                -0.1653696447610855
            ],
            "min" : [
                0.0766320750117302,
                -0.05000000074505806,
                -0.4377431869506836
            ],
            "type" : "VEC3"
        },
        {
            "bufferView" : 1,
            "componentType" : 5126,
            "count" : 2545,
            "type" : "VEC3"
        },
        {
            "bufferView" : 2,
            "componentType" : 5126,
            "count" : 2545,
            "type" : "VEC2"
        },
        {
            "bufferView" : 3,
            "componentType" : 5123,
            "count" : 4872,
            "type" : "SCALAR"
        }
    ],
    "bufferViews" : [
        {
            "buffer" : 0,
            "byteLength" : 30540,
            "byteOffset" : 0
        },
        {
            "buffer" : 0,
            "byteLength" : 30540,
            "byteOffset" : 30540
        },
        {
            "buffer" : 0,
            "byteLength" : 20360,
            "byteOffset" : 61080
        },
        {
            "buffer" : 0,
            "byteLength" : 9744,
            "byteOffset" : 81440
        }
    ],
    "buffers" : [
        {
            "byteLength" : 91184,
            "uri" : "data:application/octet-stream;base64,"
        }
    ]
}
