{
    "asset" : {
        "generator" : "Khronos glTF Blender I/O v3.2.43",
        "version" : "2.0"
    },
    "scene" : 0,
    "scenes" : [
        {
            "name" : "Scene",
            "nodes" : [
                0
            ]
        }
    ],
    "nodes" : [
        {
            "mesh" : 0,
            "name" : "Text",
            "rotation" : [
                0.7071068286895752,
                0,
                0,
                0.7071068286895752
            ]
        }
    ],
    "meshes" : [
        {
            "name" : "Text",
            "primitives" : [
                {
                    "attributes" : {
                        "POSITION" : 0,
                        "NORMAL" : 1,
                        "TEXCOORD_0" : 2
                    },
                    "indices" : 3
                }
            ]
        }
    ],
    "accessors" : [
        {
            "bufferView" : 0,
            "componentType" : 5126,
            "count" : 2330,
            "max" : [
                0.20719844102859497,
                0.05000000074505806,
                0.022373540326952934
            ],
            "min" : [
                0.029182879254221916,
                -0.05000000074505806,
                -0.6322957277297974
            ],
            "type" : "VEC3"
        },
        {
            "bufferView" : 1,
            "componentType" : 5126,
            "count" : 2330,
            "type" : "VEC3"
        },
        {
            "bufferView" : 2,
            "componentType" : 5126,
            "count" : 2330,
            "type" : "VEC2"
        },
        {
            "bufferView" : 3,
            "componentType" : 5123,
            "count" : 4296,
            "type" : "SCALAR"
        }
    ],
    "bufferViews" : [
        {
            "buffer" : 0,
            "byteLength" : 27960,
            "byteOffset" : 0
        },
        {
            "buffer" : 0,
            "byteLength" : 27960,
            "byteOffset" : 27960
        },
        {
            "buffer" : 0,
            "byteLength" : 18640,
            "byteOffset" : 55920
        },
        {
            "buffer" : 0,
            "byteLength" : 8592,
            "byteOffset" : 74560
        }
    ],
    "buffers" : [
        {
            "byteLength" : 83152,
            "uri" : "data:application/octet-stream;base64,"
        }
    ]
}
