{
    "asset" : {
        "generator" : "Khronos glTF Blender I/O v3.2.43",
        "version" : "2.0"
    },
    "scene" : 0,
    "scenes" : [
        {
            "name" : "Scene",
            "nodes" : [
                0
            ]
        }
    ],
    "nodes" : [
        {
            "mesh" : 0,
            "name" : "Text",
            "rotation" : [
                0.7071068286895752,
                0,
                0,
                0.7071068286895752
            ]
        }
    ],
    "meshes" : [
        {
            "name" : "Text",
            "primitives" : [
                {
                    "attributes" : {
                        "POSITION" : 0,
                        "NORMAL" : 1,
                        "TEXCOORD_0" : 2
                    },
                    "indices" : 3
                }
            ]
        }
    ],
    "accessors" : [
        {
            "bufferView" : 0,
            "componentType" : 5126,
            "count" : 3238,
            "max" : [
                0.533073902130127,
                0.05000000074505806,
                0.024319065734744072
            ],
            "min" : [
                0.014591439627110958,
                -0.05000000074505806,
                -0.6245136260986328
            ],
            "type" : "VEC3"
        },
        {
            "bufferView" : 1,
            "componentType" : 5126,
            "count" : 3238,
            "type" : "VEC3"
        },
        {
            "bufferView" : 2,
            "componentType" : 5126,
            "count" : 3238,
            "type" : "VEC2"
        },
        {
            "bufferView" : 3,
            "componentType" : 5123,
            "count" : 5772,
            "type" : "SCALAR"
        }
    ],
    "bufferViews" : [
        {
            "buffer" : 0,
            "byteLength" : 38856,
            "byteOffset" : 0
        },
        {
            "buffer" : 0,
            "byteLength" : 38856,
            "byteOffset" : 38856
        },
        {
            "buffer" : 0,
            "byteLength" : 25904,
            "byteOffset" : 77712
        },
        {
            "buffer" : 0,
            "byteLength" : 11544,
            "byteOffset" : 103616
        }
    ],
    "buffers" : [
        {
            "byteLength" : 115160,
            "uri" : "data:application/octet-stream;base64,"
        }
    ]
}
