{
    "asset" : {
        "generator" : "Khronos glTF Blender I/O v3.2.43",
        "version" : "2.0"
    },
    "scene" : 0,
    "scenes" : [
        {
            "name" : "Scene",
            "nodes" : [
                0
            ]
        }
    ],
    "nodes" : [
        {
            "mesh" : 0,
            "name" : "Text",
            "rotation" : [
                0.7071068286895752,
                0,
                0,
                0.7071068286895752
            ]
        }
    ],
    "meshes" : [
        {
            "name" : "Text",
            "primitives" : [
                {
                    "attributes" : {
                        "POSITION" : 0,
                        "NORMAL" : 1,
                        "TEXCOORD_0" : 2
                    },
                    "indices" : 3
                }
            ]
        }
    ],
    "accessors" : [
        {
            "bufferView" : 0,
            "componentType" : 5126,
            "count" : 1704,
            "max" : [
                0.4883268475532532,
                0.05000000074505806,
                0.009727626107633114
            ],
            "min" : [
                0.022373540326952934,
                -0.05000000074505806,
                -0.6070038676261902
            ],
            "type" : "VEC3"
        },
        {
            "bufferView" : 1,
            "componentType" : 5126,
            "count" : 1704,
            "type" : "VEC3"
        },
        {
            "bufferView" : 2,
            "componentType" : 5126,
            "count" : 1704,
            "type" : "VEC2"
        },
        {
            "bufferView" : 3,
            "componentType" : 5123,
            "count" : 3252,
            "type" : "SCALAR"
        }
    ],
    "bufferViews" : [
        {
            "buffer" : 0,
            "byteLength" : 20448,
            "byteOffset" : 0
        },
        {
            "buffer" : 0,
            "byteLength" : 20448,
            "byteOffset" : 20448
        },
        {
            "buffer" : 0,
            "byteLength" : 13632,
            "byteOffset" : 40896
        },
        {
            "buffer" : 0,
            "byteLength" : 6504,
            "byteOffset" : 54528
        }
    ],
    "buffers" : [
        {
            "byteLength" : 61032,
            "uri" : "data:application/octet-stream;base64,"
        }
    ]
}
