{
    "asset" : {
        "generator" : "Khronos glTF Blender I/O v3.2.43",
        "version" : "2.0"
    },
    "scene" : 0,
    "scenes" : [
        {
            "name" : "Scene",
            "nodes" : [
                0
            ]
        }
    ],
    "nodes" : [
        {
            "mesh" : 0,
            "name" : "Text",
            "rotation" : [
                0.7071068286895752,
                0,
                0,
                0.7071068286895752
            ]
        }
    ],
    "meshes" : [
        {
            "name" : "Text",
            "primitives" : [
                {
                    "attributes" : {
                        "POSITION" : 0,
                        "NORMAL" : 1,
                        "TEXCOORD_0" : 2
                    },
                    "indices" : 3
                }
            ]
        }
    ],
    "accessors" : [
        {
            "bufferView" : 0,
            "componentType" : 5126,
            "count" : 5604,
            "max" : [
                0.5782769918441772,
                0.05000000074505806,
                -0.015577713027596474
            ],
            "min" : [
                0.04660140722990036,
                -0.05000000074505806,
                -0.5627734661102295
            ],
            "type" : "VEC3"
        },
        {
            "bufferView" : 1,
            "componentType" : 5126,
            "count" : 5604,
            "type" : "VEC3"
        },
        {
            "bufferView" : 2,
            "componentType" : 5126,
            "count" : 5604,
            "type" : "VEC2"
        },
        {
            "bufferView" : 3,
            "componentType" : 5123,
            "count" : 10404,
            "type" : "SCALAR"
        }
    ],
    "bufferViews" : [
        {
            "buffer" : 0,
            "byteLength" : 67248,
            "byteOffset" : 0
        },
        {
            "buffer" : 0,
            "byteLength" : 67248,
            "byteOffset" : 67248
        },
        {
            "buffer" : 0,
            "byteLength" : 44832,
            "byteOffset" : 134496
        },
        {
            "buffer" : 0,
            "byteLength" : 20808,
            "byteOffset" : 179328
        }
    ],
    "buffers" : [
        {
            "byteLength" : 200136,
            "uri" : "data:application/octet-stream;base64,"
        }
    ]
}
