{
    "asset" : {
        "generator" : "Khronos glTF Blender I/O v3.2.43",
        "version" : "2.0"
    },
    "scene" : 0,
    "scenes" : [
        {
            "name" : "Scene",
            "nodes" : [
                0
            ]
        }
    ],
    "nodes" : [
        {
            "mesh" : 0,
            "name" : "Text",
            "rotation" : [
                0.7071068286895752,
                0,
                0,
                0.7071068286895752
            ]
        }
    ],
    "meshes" : [
        {
            "name" : "Text",
            "primitives" : [
                {
                    "attributes" : {
                        "POSITION" : 0,
                        "NORMAL" : 1,
                        "TEXCOORD_0" : 2
                    },
                    "indices" : 3
                }
            ]
        }
    ],
    "accessors" : [
        {
            "bufferView" : 0,
            "componentType" : 5126,
            "count" : 2623,
            "max" : [
                0.3025291860103607,
                0.05000000074505806,
                0
            ],
            "min" : [
                0.01750972680747509,
                -0.05000000074505806,
                -0.6021400690078735
            ],
            "type" : "VEC3"
        },
        {
            "bufferView" : 1,
            "componentType" : 5126,
            "count" : 2623,
            "type" : "VEC3"
        },
        {
            "bufferView" : 2,
            "componentType" : 5126,
            "count" : 2623,
            "type" : "VEC2"
        },
        {
            "bufferView" : 3,
            "componentType" : 5123,
            "count" : 5076,
            "type" : "SCALAR"
        }
    ],
    "bufferViews" : [
        {
            "buffer" : 0,
            "byteLength" : 31476,
            "byteOffset" : 0
        },
        {
            "buffer" : 0,
            "byteLength" : 31476,
            "byteOffset" : 31476
        },
        {
            "buffer" : 0,
            "byteLength" : 20984,
            "byteOffset" : 62952
        },
        {
            "buffer" : 0,
            "byteLength" : 10152,
            "byteOffset" : 83936
        }
    ],
    "buffers" : [
        {
            "byteLength" : 94088,
            "uri" : "data:application/octet-stream;base64,"
        }
    ]
}
