{
    "asset" : {
        "generator" : "Khronos glTF Blender I/O v3.2.43",
        "version" : "2.0"
    },
    "scene" : 0,
    "scenes" : [
        {
            "name" : "Scene",
            "nodes" : [
                0
            ]
        }
    ],
    "nodes" : [
        {
            "mesh" : 0,
            "name" : "Text",
            "rotation" : [
                0.7071068286895752,
                0,
                0,
                0.7071068286895752
            ]
        }
    ],
    "meshes" : [
        {
            "name" : "Text",
            "primitives" : [
                {
                    "attributes" : {
                        "POSITION" : 0,
                        "NORMAL" : 1,
                        "TEXCOORD_0" : 2
                    },
                    "indices" : 3
                }
            ]
        }
    ],
    "accessors" : [
        {
            "bufferView" : 0,
            "componentType" : 5126,
            "count" : 3088,
            "max" : [
                0.4182879328727722,
                0.05000000074505806,
                0.019455252215266228
            ],
            "min" : [
                0.008754863403737545,
                -0.05000000074505806,
                -0.6001945734024048
            ],
            "type" : "VEC3"
        },
        {
            "bufferView" : 1,
            "componentType" : 5126,
            "count" : 3088,
            "type" : "VEC3"
        },
        {
            "bufferView" : 2,
            "componentType" : 5126,
            "count" : 3088,
            "type" : "VEC2"
        },
        {
            "bufferView" : 3,
            "componentType" : 5123,
            "count" : 5772,
            "type" : "SCALAR"
        }
    ],
    "bufferViews" : [
        {
            "buffer" : 0,
            "byteLength" : 37056,
            "byteOffset" : 0
        },
        {
            "buffer" : 0,
            "byteLength" : 37056,
            "byteOffset" : 37056
        },
        {
            "buffer" : 0,
            "byteLength" : 24704,
            "byteOffset" : 74112
        },
        {
            "buffer" : 0,
            "byteLength" : 11544,
            "byteOffset" : 98816
        }
    ],
    "buffers" : [
        {
            "byteLength" : 110360,
            "uri" : "data:application/octet-stream;base64,"
        }
    ]
}
