{
    "asset" : {
        "generator" : "Khronos glTF Blender I/O v3.2.43",
        "version" : "2.0"
    },
    "scene" : 0,
    "scenes" : [
        {
            "name" : "Scene",
            "nodes" : [
                0
            ]
        }
    ],
    "nodes" : [
        {
            "mesh" : 0,
            "name" : "Text",
            "rotation" : [
                0.7071068286895752,
                0,
                0,
                0.7071068286895752
            ]
        }
    ],
    "meshes" : [
        {
            "name" : "Text",
            "primitives" : [
                {
                    "attributes" : {
                        "POSITION" : 0,
                        "NORMAL" : 1,
                        "TEXCOORD_0" : 2
                    },
                    "indices" : 3
                }
            ]
        }
    ],
    "accessors" : [
        {
            "bufferView" : 0,
            "componentType" : 5126,
            "count" : 4126,
            "max" : [
                0.48249027132987976,
                0.05000000074505806,
                0.008754863403737545
            ],
            "min" : [
                0.013527479022741318,
                -0.05000000074505806,
                -0.6060311198234558
            ],
            "type" : "VEC3"
        },
        {
            "bufferView" : 1,
            "componentType" : 5126,
            "count" : 4126,
            "type" : "VEC3"
        },
        {
            "bufferView" : 2,
            "componentType" : 5126,
            "count" : 4126,
            "type" : "VEC2"
        },
        {
            "bufferView" : 3,
            "componentType" : 5123,
            "count" : 7476,
            "type" : "SCALAR"
        }
    ],
    "bufferViews" : [
        {
            "buffer" : 0,
            "byteLength" : 49512,
            "byteOffset" : 0
        },
        {
            "buffer" : 0,
            "byteLength" : 49512,
            "byteOffset" : 49512
        },
        {
            "buffer" : 0,
            "byteLength" : 33008,
            "byteOffset" : 99024
        },
        {
            "buffer" : 0,
            "byteLength" : 14952,
            "byteOffset" : 132032
        }
    ],
    "buffers" : [
        {
            "byteLength" : 146984,
            "uri" : "data:application/octet-stream;base64,"
        }
    ]
}
