{
    "asset" : {
        "generator" : "Khronos glTF Blender I/O v3.2.43",
        "version" : "2.0"
    },
    "scene" : 0,
    "scenes" : [
        {
            "name" : "Scene",
            "nodes" : [
                0
            ]
        }
    ],
    "nodes" : [
        {
            "mesh" : 0,
            "name" : "Text",
            "rotation" : [
                0.7071068286895752,
                0,
                0,
                0.7071068286895752
            ]
        }
    ],
    "meshes" : [
        {
            "name" : "Text",
            "primitives" : [
                {
                    "attributes" : {
                        "POSITION" : 0,
                        "NORMAL" : 1,
                        "TEXCOORD_0" : 2
                    },
                    "indices" : 3
                }
            ]
        }
    ],
    "accessors" : [
        {
            "bufferView" : 0,
            "componentType" : 5126,
            "count" : 1400,
            "max" : [
                0.3754863739013672,
                0.05000000074505806,
                0.0009727626456879079
            ],
            "min" : [
                0.029182879254221916,
                -0.05000000074505806,
                -0.6070038676261902
            ],
            "type" : "VEC3"
        },
        {
            "bufferView" : 1,
            "componentType" : 5126,
            "count" : 1400,
            "type" : "VEC3"
        },
        {
            "bufferView" : 2,
            "componentType" : 5126,
            "count" : 1400,
            "type" : "VEC2"
        },
        {
            "bufferView" : 3,
            "componentType" : 5123,
            "count" : 2628,
            "type" : "SCALAR"
        }
    ],
    "bufferViews" : [
        {
            "buffer" : 0,
            "byteLength" : 16800,
            "byteOffset" : 0
        },
        {
            "buffer" : 0,
            "byteLength" : 16800,
            "byteOffset" : 16800
        },
        {
            "buffer" : 0,
            "byteLength" : 11200,
            "byteOffset" : 33600
        },
        {
            "buffer" : 0,
            "byteLength" : 5256,
            "byteOffset" : 44800
        }
    ],
    "buffers" : [
        {
            "byteLength" : 50056,
            "uri" : "data:application/octet-stream;base64,"
        }
    ]
}
