{
    "asset" : {
        "generator" : "Khronos glTF Blender I/O v3.2.43",
        "version" : "2.0"
    },
    "scene" : 0,
    "scenes" : [
        {
            "name" : "Scene",
            "nodes" : [
                0
            ]
        }
    ],
    "nodes" : [
        {
            "mesh" : 0,
            "name" : "Text",
            "rotation" : [
                0.7071068286895752,
                0,
                0,
                0.7071068286895752
            ]
        }
    ],
    "meshes" : [
        {
            "name" : "Text",
            "primitives" : [
                {
                    "attributes" : {
                        "POSITION" : 0,
                        "NORMAL" : 1,
                        "TEXCOORD_0" : 2
                    },
                    "indices" : 3
                }
            ]
        }
    ],
    "accessors" : [
        {
            "bufferView" : 0,
            "componentType" : 5126,
            "count" : 2174,
            "max" : [
                0.28015562891960144,
                0.05000000074505806,
                0.06809338182210922
            ],
            "min" : [
                0.01653696410357952,
                -0.05000000074505806,
                -0.6488326787948608
            ],
            "type" : "VEC3"
        },
        {
            "bufferView" : 1,
            "componentType" : 5126,
            "count" : 2174,
            "type" : "VEC3"
        },
        {
            "bufferView" : 2,
            "componentType" : 5126,
            "count" : 2174,
            "type" : "VEC2"
        },
        {
            "bufferView" : 3,
            "componentType" : 5123,
            "count" : 3888,
            "type" : "SCALAR"
        }
    ],
    "bufferViews" : [
        {
            "buffer" : 0,
            "byteLength" : 26088,
            "byteOffset" : 0
        },
        {
            "buffer" : 0,
            "byteLength" : 26088,
            "byteOffset" : 26088
        },
        {
            "buffer" : 0,
            "byteLength" : 17392,
            "byteOffset" : 52176
        },
        {
            "buffer" : 0,
            "byteLength" : 7776,
            "byteOffset" : 69568
        }
    ],
    "buffers" : [
        {
            "byteLength" : 77344,
            "uri" : "data:application/octet-stream;base64,"
        }
    ]
}
