{
    "asset" : {
        "generator" : "Khronos glTF Blender I/O v3.2.43",
        "version" : "2.0"
    },
    "scene" : 0,
    "scenes" : [
        {
            "name" : "Scene",
            "nodes" : [
                0
            ]
        }
    ],
    "nodes" : [
        {
            "mesh" : 0,
            "name" : "Text",
            "rotation" : [
                0.7071068286895752,
                0,
                0,
                0.7071068286895752
            ]
        }
    ],
    "meshes" : [
        {
            "name" : "Text",
            "primitives" : [
                {
                    "attributes" : {
                        "POSITION" : 0,
                        "NORMAL" : 1,
                        "TEXCOORD_0" : 2
                    },
                    "indices" : 3
                }
            ]
        }
    ],
    "accessors" : [
        {
            "bufferView" : 0,
            "componentType" : 5126,
            "count" : 3288,
            "max" : [
                0.5924124717712402,
                0.05000000074505806,
                0.010700388811528683
            ],
            "min" : [
                0.022373540326952934,
                -0.05000000074505806,
                -0.612840473651886
            ],
            "type" : "VEC3"
        },
        {
            "bufferView" : 1,
            "componentType" : 5126,
            "count" : 3288,
            "type" : "VEC3"
        },
        {
            "bufferView" : 2,
            "componentType" : 5126,
            "count" : 3288,
            "type" : "VEC2"
        },
        {
            "bufferView" : 3,
            "componentType" : 5123,
            "count" : 6084,
            "type" : "SCALAR"
        }
    ],
    "bufferViews" : [
        {
            "buffer" : 0,
            "byteLength" : 39456,
            "byteOffset" : 0
        },
        {
            "buffer" : 0,
            "byteLength" : 39456,
            "byteOffset" : 39456
        },
        {
            "buffer" : 0,
            "byteLength" : 26304,
            "byteOffset" : 78912
        },
        {
            "buffer" : 0,
            "byteLength" : 12168,
            "byteOffset" : 105216
        }
    ],
    "buffers" : [
        {
            "byteLength" : 117384,
            "uri" : "data:application/octet-stream;base64,"
        }
    ]
}
