{
    "asset" : {
        "generator" : "Khronos glTF Blender I/O v3.2.43",
        "version" : "2.0"
    },
    "scene" : 0,
    "scenes" : [
        {
            "name" : "Scene",
            "nodes" : [
                0
            ]
        }
    ],
    "nodes" : [
        {
            "mesh" : 0,
            "name" : "Text",
            "rotation" : [
                0.7071068286895752,
                0,
                0,
                0.7071068286895752
            ]
        }
    ],
    "meshes" : [
        {
            "name" : "Text",
            "primitives" : [
                {
                    "attributes" : {
                        "POSITION" : 0,
                        "NORMAL" : 1,
                        "TEXCOORD_0" : 2
                    },
                    "indices" : 3
                }
            ]
        }
    ],
    "accessors" : [
        {
            "bufferView" : 0,
            "componentType" : 5126,
            "count" : 1397,
            "max" : [
                0.34824901819229126,
                0.05000000074505806,
                -0.22373540699481964
            ],
            "min" : [
                0.05252918228507042,
                -0.05000000074505806,
                -0.3784046769142151
            ],
            "type" : "VEC3"
        },
        {
            "bufferView" : 1,
            "componentType" : 5126,
            "count" : 1397,
            "type" : "VEC3"
        },
        {
            "bufferView" : 2,
            "componentType" : 5126,
            "count" : 1397,
            "type" : "VEC2"
        },
        {
            "bufferView" : 3,
            "componentType" : 5123,
            "count" : 2868,
            "type" : "SCALAR"
        }
    ],
    "bufferViews" : [
        {
            "buffer" : 0,
            "byteLength" : 16764,
            "byteOffset" : 0
        },
        {
            "buffer" : 0,
            "byteLength" : 16764,
            "byteOffset" : 16764
        },
        {
            "buffer" : 0,
            "byteLength" : 11176,
            "byteOffset" : 33528
        },
        {
            "buffer" : 0,
            "byteLength" : 5736,
            "byteOffset" : 44704
        }
    ],
    "buffers" : [
        {
            "byteLength" : 50440,
            "uri" : "data:application/octet-stream;base64,"
        }
    ]
}
