{
    "asset" : {
        "generator" : "Khronos glTF Blender I/O v3.2.43",
        "version" : "2.0"
    },
    "scene" : 0,
    "scenes" : [
        {
            "name" : "Scene",
            "nodes" : [
                0
            ]
        }
    ],
    "nodes" : [
        {
            "mesh" : 0,
            "name" : "Text",
            "rotation" : [
                0.7071068286895752,
                0,
                0,
                0.7071068286895752
            ]
        }
    ],
    "meshes" : [
        {
            "name" : "Text",
            "primitives" : [
                {
                    "attributes" : {
                        "POSITION" : 0,
                        "NORMAL" : 1,
                        "TEXCOORD_0" : 2
                    },
                    "indices" : 3
                }
            ]
        }
    ],
    "accessors" : [
        {
            "bufferView" : 0,
            "componentType" : 5126,
            "count" : 3338,
            "max" : [
                0.5291828513145447,
                0.05000000074505806,
                0.009335818700492382
            ],
            "min" : [
                0.019455252215266228,
                -0.05000000074505806,
                -0.6066120862960815
            ],
            "type" : "VEC3"
        },
        {
            "bufferView" : 1,
            "componentType" : 5126,
            "count" : 3338,
            "type" : "VEC3"
        },
        {
            "bufferView" : 2,
            "componentType" : 5126,
            "count" : 3338,
            "type" : "VEC2"
        },
        {
            "bufferView" : 3,
            "componentType" : 5123,
            "count" : 5928,
            "type" : "SCALAR"
        }
    ],
    "bufferViews" : [
        {
            "buffer" : 0,
            "byteLength" : 40056,
            "byteOffset" : 0
        },
        {
            "buffer" : 0,
            "byteLength" : 40056,
            "byteOffset" : 40056
        },
        {
            "buffer" : 0,
            "byteLength" : 26704,
            "byteOffset" : 80112
        },
        {
            "buffer" : 0,
            "byteLength" : 11856,
            "byteOffset" : 106816
        }
    ],
    "buffers" : [
        {
            "byteLength" : 118672,
            "uri" : "data:application/octet-stream;base64,"
        }
    ]
}
