{
    "asset" : {
        "generator" : "Khronos glTF Blender I/O v3.2.43",
        "version" : "2.0"
    },
    "scene" : 0,
    "scenes" : [
        {
            "name" : "Scene",
            "nodes" : [
                0
            ]
        }
    ],
    "nodes" : [
        {
            "mesh" : 0,
            "name" : "Text",
            "rotation" : [
                0.7071068286895752,
                0,
                0,
                0.7071068286895752
            ]
        }
    ],
    "meshes" : [
        {
            "name" : "Text",
            "primitives" : [
                {
                    "attributes" : {
                        "POSITION" : 0,
                        "NORMAL" : 1,
                        "TEXCOORD_0" : 2
                    },
                    "indices" : 3
                }
            ]
        }
    ],
    "accessors" : [
        {
            "bufferView" : 0,
            "componentType" : 5126,
            "count" : 2522,
            "max" : [
                0.542801558971405,
                0.05000000074505806,
                0.024319065734744072
            ],
            "min" : [
                0.008754863403737545,
                -0.05000000074505806,
                -0.6215953230857849
            ],
            "type" : "VEC3"
        },
        {
            "bufferView" : 1,
            "componentType" : 5126,
            "count" : 2522,
            "type" : "VEC3"
        },
        {
            "bufferView" : 2,
            "componentType" : 5126,
            "count" : 2522,
            "type" : "VEC2"
        },
        {
            "bufferView" : 3,
            "componentType" : 5123,
            "count" : 4608,
            "type" : "SCALAR"
        }
    ],
    "bufferViews" : [
        {
            "buffer" : 0,
            "byteLength" : 30264,
            "byteOffset" : 0
        },
        {
            "buffer" : 0,
            "byteLength" : 30264,
            "byteOffset" : 30264
        },
        {
            "buffer" : 0,
            "byteLength" : 20176,
            "byteOffset" : 60528
        },
        {
            "buffer" : 0,
            "byteLength" : 9216,
            "byteOffset" : 80704
        }
    ],
    "buffers" : [
        {
            "byteLength" : 89920,
            "uri" : "data:application/octet-stream;base64,"
        }
    ]
}
