{
    "asset" : {
        "generator" : "Khronos glTF Blender I/O v3.2.43",
        "version" : "2.0"
    },
    "scene" : 0,
    "scenes" : [
        {
            "name" : "Scene",
            "nodes" : [
                0
            ]
        }
    ],
    "nodes" : [
        {
            "mesh" : 0,
            "name" : "Text",
            "rotation" : [
                0.7071068286895752,
                0,
                0,
                0.7071068286895752
            ]
        }
    ],
    "meshes" : [
        {
            "name" : "Text",
            "primitives" : [
                {
                    "attributes" : {
                        "POSITION" : 0,
                        "NORMAL" : 1,
                        "TEXCOORD_0" : 2
                    },
                    "indices" : 3
                }
            ]
        }
    ],
    "accessors" : [
        {
            "bufferView" : 0,
            "componentType" : 5126,
            "count" : 2282,
            "max" : [
                0.47665369510650635,
                0.05000000074505806,
                0.01848248951137066
            ],
            "min" : [
                0.009727626107633114,
                -0.05000000074505806,
                -0.6108949184417725
            ],
            "type" : "VEC3"
        },
        {
            "bufferView" : 1,
            "componentType" : 5126,
            "count" : 2282,
            "type" : "VEC3"
        },
        {
            "bufferView" : 2,
            "componentType" : 5126,
            "count" : 2282,
            "type" : "VEC2"
        },
        {
            "bufferView" : 3,
            "componentType" : 5123,
            "count" : 4056,
            "type" : "SCALAR"
        }
    ],
    "bufferViews" : [
        {
            "buffer" : 0,
            "byteLength" : 27384,
            "byteOffset" : 0
        },
        {
            "buffer" : 0,
            "byteLength" : 27384,
            "byteOffset" : 27384
        },
        {
            "buffer" : 0,
            "byteLength" : 18256,
            "byteOffset" : 54768
        },
        {
            "buffer" : 0,
            "byteLength" : 8112,
            "byteOffset" : 73024
        }
    ],
    "buffers" : [
        {
            "byteLength" : 81136,
            "uri" : "data:application/octet-stream;base64,"
        }
    ]
}
