{
    "asset" : {
        "generator" : "Khronos glTF Blender I/O v3.2.43",
        "version" : "2.0"
    },
    "scene" : 0,
    "scenes" : [
        {
            "name" : "Scene",
            "nodes" : [
                0
            ]
        }
    ],
    "nodes" : [
        {
            "mesh" : 0,
            "name" : "Text",
            "rotation" : [
                0.7071068286895752,
                0,
                0,
                0.7071068286895752
            ]
        }
    ],
    "meshes" : [
        {
            "name" : "Text",
            "primitives" : [
                {
                    "attributes" : {
                        "POSITION" : 0,
                        "NORMAL" : 1,
                        "TEXCOORD_0" : 2
                    },
                    "indices" : 3
                }
            ]
        }
    ],
    "accessors" : [
        {
            "bufferView" : 0,
            "componentType" : 5126,
            "count" : 4952,
            "max" : [
                0.6546692848205566,
                0.05000000074505806,
                0.015564202331006527
            ],
            "min" : [
                0.02723735384643078,
                -0.05000000074505806,
                -0.5914396643638611
            ],
            "type" : "VEC3"
        },
        {
            "bufferView" : 1,
            "componentType" : 5126,
            "count" : 4952,
            "type" : "VEC3"
        },
        {
            "bufferView" : 2,
            "componentType" : 5126,
            "count" : 4952,
            "type" : "VEC2"
        },
        {
            "bufferView" : 3,
            "componentType" : 5123,
            "count" : 9348,
            "type" : "SCALAR"
        }
    ],
    "bufferViews" : [
        {
            "buffer" : 0,
            "byteLength" : 59424,
            "byteOffset" : 0
        },
        {
            "buffer" : 0,
            "byteLength" : 59424,
            "byteOffset" : 59424
        },
        {
            "buffer" : 0,
            "byteLength" : 39616,
            "byteOffset" : 118848
        },
        {
            "buffer" : 0,
            "byteLength" : 18696,
            "byteOffset" : 158464
        }
    ],
    "buffers" : [
        {
            "byteLength" : 177160,
            "uri" : "data:application/octet-stream;base64,"
        }
    ]
}
