{
    "asset" : {
        "generator" : "Khronos glTF Blender I/O v3.2.43",
        "version" : "2.0"
    },
    "scene" : 0,
    "scenes" : [
        {
            "name" : "Scene",
            "nodes" : [
                0
            ]
        }
    ],
    "nodes" : [
        {
            "mesh" : 0,
            "name" : "Text",
            "rotation" : [
                0.7071068286895752,
                0,
                0,
                0.7071068286895752
            ]
        }
    ],
    "meshes" : [
        {
            "name" : "Text",
            "primitives" : [
                {
                    "attributes" : {
                        "POSITION" : 0,
                        "NORMAL" : 1,
                        "TEXCOORD_0" : 2
                    },
                    "indices" : 3
                }
            ]
        }
    ],
    "accessors" : [
        {
            "bufferView" : 0,
            "componentType" : 5126,
            "count" : 3026,
            "max" : [
                0.41881147027015686,
                0.05000000074505806,
                -0.11078685522079468
            ],
            "min" : [
                0.05210359767079353,
                -0.05000000074505806,
                -0.4566039741039276
            ],
            "type" : "VEC3"
        },
        {
            "bufferView" : 1,
            "componentType" : 5126,
            "count" : 3026,
            "type" : "VEC3"
        },
        {
            "bufferView" : 2,
            "componentType" : 5126,
            "count" : 3026,
            "type" : "VEC2"
        },
        {
            "bufferView" : 3,
            "componentType" : 5123,
            "count" : 5748,
            "type" : "SCALAR"
        }
    ],
    "bufferViews" : [
        {
            "buffer" : 0,
            "byteLength" : 36312,
            "byteOffset" : 0
        },
        {
            "buffer" : 0,
            "byteLength" : 36312,
            "byteOffset" : 36312
        },
        {
            "buffer" : 0,
            "byteLength" : 24208,
            "byteOffset" : 72624
        },
        {
            "buffer" : 0,
            "byteLength" : 11496,
            "byteOffset" : 96832
        }
    ],
    "buffers" : [
        {
            "byteLength" : 108328,
            "uri" : "data:application/octet-stream;base64,"
        }
    ]
}
