{
    "asset" : {
        "generator" : "Khronos glTF Blender I/O v3.2.43",
        "version" : "2.0"
    },
    "scene" : 0,
    "scenes" : [
        {
            "name" : "Scene",
            "nodes" : [
                0
            ]
        }
    ],
    "nodes" : [
        {
            "mesh" : 0,
            "name" : "Text",
            "rotation" : [
                0.7071068286895752,
                0,
                0,
                0.7071068286895752
            ]
        }
    ],
    "meshes" : [
        {
            "name" : "Text",
            "primitives" : [
                {
                    "attributes" : {
                        "POSITION" : 0,
                        "NORMAL" : 1,
                        "TEXCOORD_0" : 2
                    },
                    "indices" : 3
                }
            ]
        }
    ],
    "accessors" : [
        {
            "bufferView" : 0,
            "componentType" : 5126,
            "count" : 3852,
            "max" : [
                0.330739289522171,
                0.05000000074505806,
                0.022373540326952934
            ],
            "min" : [
                0.01361867692321539,
                -0.05000000074505806,
                -0.6381322741508484
            ],
            "type" : "VEC3"
        },
        {
            "bufferView" : 1,
            "componentType" : 5126,
            "count" : 3852,
            "type" : "VEC3"
        },
        {
            "bufferView" : 2,
            "componentType" : 5126,
            "count" : 3852,
            "type" : "VEC2"
        },
        {
            "bufferView" : 3,
            "componentType" : 5123,
            "count" : 7176,
            "type" : "SCALAR"
        }
    ],
    "bufferViews" : [
        {
            "buffer" : 0,
            "byteLength" : 46224,
            "byteOffset" : 0
        },
        {
            "buffer" : 0,
            "byteLength" : 46224,
            "byteOffset" : 46224
        },
        {
            "buffer" : 0,
            "byteLength" : 30816,
            "byteOffset" : 92448
        },
        {
            "buffer" : 0,
            "byteLength" : 14352,
            "byteOffset" : 123264
        }
    ],
    "buffers" : [
        {
            "byteLength" : 137616,
            "uri" : "data:application/octet-stream;base64,"
        }
    ]
}
