{
    "asset" : {
        "generator" : "Khronos glTF Blender I/O v3.2.43",
        "version" : "2.0"
    },
    "scene" : 0,
    "scenes" : [
        {
            "name" : "Scene",
            "nodes" : [
                0
            ]
        }
    ],
    "nodes" : [
        {
            "mesh" : 0,
            "name" : "Text",
            "rotation" : [
                0.7071068286895752,
                0,
                0,
                0.7071068286895752
            ]
        }
    ],
    "meshes" : [
        {
            "name" : "Text",
            "primitives" : [
                {
                    "attributes" : {
                        "POSITION" : 0,
                        "NORMAL" : 1,
                        "TEXCOORD_0" : 2
                    },
                    "indices" : 3
                }
            ]
        }
    ],
    "accessors" : [
        {
            "bufferView" : 0,
            "componentType" : 5126,
            "count" : 2440,
            "max" : [
                0.3035019338130951,
                0.05000000074505806,
                -0.48540857434272766
            ],
            "min" : [
                0.01750972680747509,
                -0.05000000074505806,
                -0.6702334880828857
            ],
            "type" : "VEC3"
        },
        {
            "bufferView" : 1,
            "componentType" : 5126,
            "count" : 2440,
            "type" : "VEC3"
        },
        {
            "bufferView" : 2,
            "componentType" : 5126,
            "count" : 2440,
            "type" : "VEC2"
        },
        {
            "bufferView" : 3,
            "componentType" : 5123,
            "count" : 4296,
            "type" : "SCALAR"
        }
    ],
    "bufferViews" : [
        {
            "buffer" : 0,
            "byteLength" : 29280,
            "byteOffset" : 0
        },
        {
            "buffer" : 0,
            "byteLength" : 29280,
            "byteOffset" : 29280
        },
        {
            "buffer" : 0,
            "byteLength" : 19520,
            "byteOffset" : 58560
        },
        {
            "buffer" : 0,
            "byteLength" : 8592,
            "byteOffset" : 78080
        }
    ],
    "buffers" : [
        {
            "byteLength" : 86672,
            "uri" : "data:application/octet-stream;base64,"
        }
    ]
}
