{
    "asset" : {
        "generator" : "Khronos glTF Blender I/O v3.2.43",
        "version" : "2.0"
    },
    "scene" : 0,
    "scenes" : [
        {
            "name" : "Scene",
            "nodes" : [
                0
            ]
        }
    ],
    "nodes" : [
        {
            "mesh" : 0,
            "name" : "Text",
            "rotation" : [
                0.7071068286895752,
                0,
                0,
                0.7071068286895752
            ]
        }
    ],
    "meshes" : [
        {
            "name" : "Text",
            "primitives" : [
                {
                    "attributes" : {
                        "POSITION" : 0,
                        "NORMAL" : 1,
                        "TEXCOORD_0" : 2
                    },
                    "indices" : 3
                }
            ]
        }
    ],
    "accessors" : [
        {
            "bufferView" : 0,
            "componentType" : 5126,
            "count" : 2368,
            "max" : [
                0.45817121863365173,
                0.05000000074505806,
                0.02723735384643078
            ],
            "min" : [
                0.021400777623057365,
                -0.05000000074505806,
                -0.6001945734024048
            ],
            "type" : "VEC3"
        },
        {
            "bufferView" : 1,
            "componentType" : 5126,
            "count" : 2368,
            "type" : "VEC3"
        },
        {
            "bufferView" : 2,
            "componentType" : 5126,
            "count" : 2368,
            "type" : "VEC2"
        },
        {
            "bufferView" : 3,
            "componentType" : 5123,
            "count" : 4512,
            "type" : "SCALAR"
        }
    ],
    "bufferViews" : [
        {
            "buffer" : 0,
            "byteLength" : 28416,
            "byteOffset" : 0
        },
        {
            "buffer" : 0,
            "byteLength" : 28416,
            "byteOffset" : 28416
        },
        {
            "buffer" : 0,
            "byteLength" : 18944,
            "byteOffset" : 56832
        },
        {
            "buffer" : 0,
            "byteLength" : 9024,
            "byteOffset" : 75776
        }
    ],
    "buffers" : [
        {
            "byteLength" : 84800,
            "uri" : "data:application/octet-stream;base64,"
        }
    ]
}
