{
    "asset" : {
        "generator" : "Khronos glTF Blender I/O v3.2.43",
        "version" : "2.0"
    },
    "scene" : 0,
    "scenes" : [
        {
            "name" : "Scene",
            "nodes" : [
                0
            ]
        }
    ],
    "nodes" : [
        {
            "mesh" : 0,
            "name" : "Text",
            "rotation" : [
                0.7071068286895752,
                0,
                0,
                0.7071068286895752
            ]
        }
    ],
    "meshes" : [
        {
            "name" : "Text",
            "primitives" : [
                {
                    "attributes" : {
                        "POSITION" : 0,
                        "NORMAL" : 1,
                        "TEXCOORD_0" : 2
                    },
                    "indices" : 3
                }
            ]
        }
    ],
    "accessors" : [
        {
            "bufferView" : 0,
            "componentType" : 5126,
            "count" : 4105,
            "max" : [
                0.3842412531375885,
                0.05000000074505806,
                0.01653696410357952
            ],
            "min" : [
                0.014591439627110958,
                -0.05000000074505806,
                -0.6070038676261902
            ],
            "type" : "VEC3"
        },
        {
            "bufferView" : 1,
            "componentType" : 5126,
            "count" : 4105,
            "type" : "VEC3"
        },
        {
            "bufferView" : 2,
            "componentType" : 5126,
            "count" : 4105,
            "type" : "VEC2"
        },
        {
            "bufferView" : 3,
            "componentType" : 5123,
            "count" : 7764,
            "type" : "SCALAR"
        }
    ],
    "bufferViews" : [
        {
            "buffer" : 0,
            "byteLength" : 49260,
            "byteOffset" : 0
        },
        {
            "buffer" : 0,
            "byteLength" : 49260,
            "byteOffset" : 49260
        },
        {
            "buffer" : 0,
            "byteLength" : 32840,
            "byteOffset" : 98520
        },
        {
            "buffer" : 0,
            "byteLength" : 15528,
            "byteOffset" : 131360
        }
    ],
    "buffers" : [
        {
            "byteLength" : 146888,
            "uri" : "data:application/octet-stream;base64,"
        }
    ]
}
