{
    "asset" : {
        "generator" : "Khronos glTF Blender I/O v3.2.43",
        "version" : "2.0"
    },
    "scene" : 0,
    "scenes" : [
        {
            "name" : "Scene",
            "nodes" : [
                0
            ]
        }
    ],
    "nodes" : [
        {
            "mesh" : 0,
            "name" : "Text",
            "rotation" : [
                0.7071068286895752,
                0,
                0,
                0.7071068286895752
            ]
        }
    ],
    "meshes" : [
        {
            "name" : "Text",
            "primitives" : [
                {
                    "attributes" : {
                        "POSITION" : 0,
                        "NORMAL" : 1,
                        "TEXCOORD_0" : 2
                    },
                    "indices" : 3
                }
            ]
        }
    ],
    "accessors" : [
        {
            "bufferView" : 0,
            "componentType" : 5126,
            "count" : 3426,
            "max" : [
                0.3433852195739746,
                0.05000000074505806,
                -0.306420236825943
            ],
            "min" : [
                0.020428014919161797,
                -0.05000000074505806,
                -0.6177042722702026
            ],
            "type" : "VEC3"
        },
        {
            "bufferView" : 1,
            "componentType" : 5126,
            "count" : 3426,
            "type" : "VEC3"
        },
        {
            "bufferView" : 2,
            "componentType" : 5126,
            "count" : 3426,
            "type" : "VEC2"
        },
        {
            "bufferView" : 3,
            "componentType" : 5123,
            "count" : 6468,
            "type" : "SCALAR"
        }
    ],
    "bufferViews" : [
        {
            "buffer" : 0,
            "byteLength" : 41112,
            "byteOffset" : 0
        },
        {
            "buffer" : 0,
            "byteLength" : 41112,
            "byteOffset" : 41112
        },
        {
            "buffer" : 0,
            "byteLength" : 27408,
            "byteOffset" : 82224
        },
        {
            "buffer" : 0,
            "byteLength" : 12936,
            "byteOffset" : 109632
        }
    ],
    "buffers" : [
        {
            "byteLength" : 122568,
            "uri" : "data:application/octet-stream;base64,"
        }
    ]
}
