{
    "asset" : {
        "generator" : "Khronos glTF Blender I/O v3.2.43",
        "version" : "2.0"
    },
    "scene" : 0,
    "scenes" : [
        {
            "name" : "Scene",
            "nodes" : [
                0
            ]
        }
    ],
    "nodes" : [
        {
            "mesh" : 0,
            "name" : "Text",
            "rotation" : [
                0.7071068286895752,
                0,
                0,
                0.7071068286895752
            ]
        }
    ],
    "meshes" : [
        {
            "name" : "Text",
            "primitives" : [
                {
                    "attributes" : {
                        "POSITION" : 0,
                        "NORMAL" : 1,
                        "TEXCOORD_0" : 2
                    },
                    "indices" : 3
                }
            ]
        }
    ],
    "accessors" : [
        {
            "bufferView" : 0,
            "componentType" : 5126,
            "count" : 1825,
            "max" : [
                0.3589494228363037,
                0.05000000074505806,
                0.009727626107633114
            ],
            "min" : [
                0.0038910505827516317,
                -0.05000000074505806,
                -0.5992217659950256
            ],
            "type" : "VEC3"
        },
        {
            "bufferView" : 1,
            "componentType" : 5126,
            "count" : 1825,
            "type" : "VEC3"
        },
        {
            "bufferView" : 2,
            "componentType" : 5126,
            "count" : 1825,
            "type" : "VEC2"
        },
        {
            "bufferView" : 3,
            "componentType" : 5123,
            "count" : 3336,
            "type" : "SCALAR"
        }
    ],
    "bufferViews" : [
        {
            "buffer" : 0,
            "byteLength" : 21900,
            "byteOffset" : 0
        },
        {
            "buffer" : 0,
            "byteLength" : 21900,
            "byteOffset" : 21900
        },
        {
            "buffer" : 0,
            "byteLength" : 14600,
            "byteOffset" : 43800
        },
        {
            "buffer" : 0,
            "byteLength" : 6672,
            "byteOffset" : 58400
        }
    ],
    "buffers" : [
        {
            "byteLength" : 65072,
            "uri" : "data:application/octet-stream;base64,"
        }
    ]
}
