{
    "asset" : {
        "generator" : "Khronos glTF Blender I/O v3.2.43",
        "version" : "2.0"
    },
    "scene" : 0,
    "scenes" : [
        {
            "name" : "Scene",
            "nodes" : [
                0
            ]
        }
    ],
    "nodes" : [
        {
            "mesh" : 0,
            "name" : "Text",
            "rotation" : [
                0.7071068286895752,
                0,
                0,
                0.7071068286895752
            ]
        }
    ],
    "meshes" : [
        {
            "name" : "Text",
            "primitives" : [
                {
                    "attributes" : {
                        "POSITION" : 0,
                        "NORMAL" : 1,
                        "TEXCOORD_0" : 2
                    },
                    "indices" : 3
                }
            ]
        }
    ],
    "accessors" : [
        {
            "bufferView" : 0,
            "componentType" : 5126,
            "count" : 1988,
            "max" : [
                0.5214007496833801,
                0.05000000074505806,
                0.0038910505827516317
            ],
            "min" : [
                0.01750972680747509,
                -0.05000000074505806,
                -0.6079766750335693
            ],
            "type" : "VEC3"
        },
        {
            "bufferView" : 1,
            "componentType" : 5126,
            "count" : 1988,
            "type" : "VEC3"
        },
        {
            "bufferView" : 2,
            "componentType" : 5126,
            "count" : 1988,
            "type" : "VEC2"
        },
        {
            "bufferView" : 3,
            "componentType" : 5123,
            "count" : 3780,
            "type" : "SCALAR"
        }
    ],
    "bufferViews" : [
        {
            "buffer" : 0,
            "byteLength" : 23856,
            "byteOffset" : 0
        },
        {
            "buffer" : 0,
            "byteLength" : 23856,
            "byteOffset" : 23856
        },
        {
            "buffer" : 0,
            "byteLength" : 15904,
            "byteOffset" : 47712
        },
        {
            "buffer" : 0,
            "byteLength" : 7560,
            "byteOffset" : 63616
        }
    ],
    "buffers" : [
        {
            "byteLength" : 71176,
            "uri" : "data:application/octet-stream;base64,"
        }
    ]
}
