{
    "asset" : {
        "generator" : "Khronos glTF Blender I/O v3.2.43",
        "version" : "2.0"
    },
    "scene" : 0,
    "scenes" : [
        {
            "name" : "Scene",
            "nodes" : [
                0
            ]
        }
    ],
    "nodes" : [
        {
            "mesh" : 0,
            "name" : "Text",
            "rotation" : [
                0.7071068286895752,
                0,
                0,
                0.7071068286895752
            ]
        }
    ],
    "meshes" : [
        {
            "name" : "Text",
            "primitives" : [
                {
                    "attributes" : {
                        "POSITION" : 0,
                        "NORMAL" : 1,
                        "TEXCOORD_0" : 2
                    },
                    "indices" : 3
                }
            ]
        }
    ],
    "accessors" : [
        {
            "bufferView" : 0,
            "componentType" : 5126,
            "count" : 1399,
            "max" : [
                0.3249027132987976,
                0.05000000074505806,
                0.12062256783246994
            ],
            "min" : [
                0.029182879254221916,
                -0.05000000074505806,
                -0.03404669091105461
            ],
            "type" : "VEC3"
        },
        {
            "bufferView" : 1,
            "componentType" : 5126,
            "count" : 1399,
            "type" : "VEC3"
        },
        {
            "bufferView" : 2,
            "componentType" : 5126,
            "count" : 1399,
            "type" : "VEC2"
        },
        {
            "bufferView" : 3,
            "componentType" : 5123,
            "count" : 2868,
            "type" : "SCALAR"
        }
    ],
    "bufferViews" : [
        {
            "buffer" : 0,
            "byteLength" : 16788,
            "byteOffset" : 0
        },
        {
            "buffer" : 0,
            "byteLength" : 16788,
            "byteOffset" : 16788
        },
        {
            "buffer" : 0,
            "byteLength" : 11192,
            "byteOffset" : 33576
        },
        {
            "buffer" : 0,
            "byteLength" : 5736,
            "byteOffset" : 44768
        }
    ],
    "buffers" : [
        {
            "byteLength" : 50504,
            "uri" : "data:application/octet-stream;base64,"
        }
    ]
}
