{
    "asset" : {
        "generator" : "Khronos glTF Blender I/O v3.2.43",
        "version" : "2.0"
    },
    "scene" : 0,
    "scenes" : [
        {
            "name" : "Scene",
            "nodes" : [
                0
            ]
        }
    ],
    "nodes" : [
        {
            "mesh" : 0,
            "name" : "Text",
            "rotation" : [
                0.7071068286895752,
                0,
                0,
                0.7071068286895752
            ]
        }
    ],
    "meshes" : [
        {
            "name" : "Text",
            "primitives" : [
                {
                    "attributes" : {
                        "POSITION" : 0,
                        "NORMAL" : 1,
                        "TEXCOORD_0" : 2
                    },
                    "indices" : 3
                }
            ]
        }
    ],
    "accessors" : [
        {
            "bufferView" : 0,
            "componentType" : 5126,
            "count" : 1698,
            "max" : [
                0.30739298462867737,
                0.05000000074505806,
                -0.39785993099212646
            ],
            "min" : [
                0.02626459114253521,
                -0.05000000074505806,
                -0.6641401648521423
            ],
            "type" : "VEC3"
        },
        {
            "bufferView" : 1,
            "componentType" : 5126,
            "count" : 1698,
            "type" : "VEC3"
        },
        {
            "bufferView" : 2,
            "componentType" : 5126,
            "count" : 1698,
            "type" : "VEC2"
        },
        {
            "bufferView" : 3,
            "componentType" : 5123,
            "count" : 3156,
            "type" : "SCALAR"
        }
    ],
    "bufferViews" : [
        {
            "buffer" : 0,
            "byteLength" : 20376,
            "byteOffset" : 0
        },
        {
            "buffer" : 0,
            "byteLength" : 20376,
            "byteOffset" : 20376
        },
        {
            "buffer" : 0,
            "byteLength" : 13584,
            "byteOffset" : 40752
        },
        {
            "buffer" : 0,
            "byteLength" : 6312,
            "byteOffset" : 54336
        }
    ],
    "buffers" : [
        {
            "byteLength" : 60648,
            "uri" : "data:application/octet-stream;base64,"
        }
    ]
}
