{
    "asset" : {
        "generator" : "Khronos glTF Blender I/O v3.2.43",
        "version" : "2.0"
    },
    "scene" : 0,
    "scenes" : [
        {
            "name" : "Scene",
            "nodes" : [
                0
            ]
        }
    ],
    "nodes" : [
        {
            "mesh" : 0,
            "name" : "Text",
            "rotation" : [
                0.7071068286895752,
                0,
                0,
                0.7071068286895752
            ]
        }
    ],
    "meshes" : [
        {
            "name" : "Text",
            "primitives" : [
                {
                    "attributes" : {
                        "POSITION" : 0,
                        "NORMAL" : 1,
                        "TEXCOORD_0" : 2
                    },
                    "indices" : 3
                }
            ]
        }
    ],
    "accessors" : [
        {
            "bufferView" : 0,
            "componentType" : 5126,
            "count" : 2280,
            "max" : [
                0.518482506275177,
                0.05000000074505806,
                -0.020428014919161797
            ],
            "min" : [
                0,
                -0.05000000074505806,
                -0.6092230081558228
            ],
            "type" : "VEC3"
        },
        {
            "bufferView" : 1,
            "componentType" : 5126,
            "count" : 2280,
            "type" : "VEC3"
        },
        {
            "bufferView" : 2,
            "componentType" : 5126,
            "count" : 2280,
            "type" : "VEC2"
        },
        {
            "bufferView" : 3,
            "componentType" : 5123,
            "count" : 4176,
            "type" : "SCALAR"
        }
    ],
    "bufferViews" : [
        {
            "buffer" : 0,
            "byteLength" : 27360,
            "byteOffset" : 0
        },
        {
            "buffer" : 0,
            "byteLength" : 27360,
            "byteOffset" : 27360
        },
        {
            "buffer" : 0,
            "byteLength" : 18240,
            "byteOffset" : 54720
        },
        {
            "buffer" : 0,
            "byteLength" : 8352,
            "byteOffset" : 72960
        }
    ],
    "buffers" : [
        {
            "byteLength" : 81312,
            "uri" : "data:application/octet-stream;base64,"
        }
    ]
}
