{
    "asset" : {
        "generator" : "Khronos glTF Blender I/O v3.2.43",
        "version" : "2.0"
    },
    "scene" : 0,
    "scenes" : [
        {
            "name" : "Scene",
            "nodes" : [
                0
            ]
        }
    ],
    "nodes" : [
        {
            "mesh" : 0,
            "name" : "Text",
            "rotation" : [
                0.7071068286895752,
                0,
                0,
                0.7071068286895752
            ]
        }
    ],
    "meshes" : [
        {
            "name" : "Text",
            "primitives" : [
                {
                    "attributes" : {
                        "POSITION" : 0,
                        "NORMAL" : 1,
                        "TEXCOORD_0" : 2
                    },
                    "indices" : 3
                }
            ]
        }
    ],
    "accessors" : [
        {
            "bufferView" : 0,
            "componentType" : 5126,
            "count" : 4108,
            "max" : [
                0.6809338331222534,
                0.05000000074505806,
                0.0038910505827516317
            ],
            "min" : [
                0.01848248951137066,
                -0.05000000074505806,
                -0.6056393384933472
            ],
            "type" : "VEC3"
        },
        {
            "bufferView" : 1,
            "componentType" : 5126,
            "count" : 4108,
            "type" : "VEC3"
        },
        {
            "bufferView" : 2,
            "componentType" : 5126,
            "count" : 4108,
            "type" : "VEC2"
        },
        {
            "bufferView" : 3,
            "componentType" : 5123,
            "count" : 7524,
            "type" : "SCALAR"
        }
    ],
    "bufferViews" : [
        {
            "buffer" : 0,
            "byteLength" : 49296,
            "byteOffset" : 0
        },
        {
            "buffer" : 0,
            "byteLength" : 49296,
            "byteOffset" : 49296
        },
        {
            "buffer" : 0,
            "byteLength" : 32864,
            "byteOffset" : 98592
        },
        {
            "buffer" : 0,
            "byteLength" : 15048,
            "byteOffset" : 131456
        }
    ],
    "buffers" : [
        {
            "byteLength" : 146504,
            "uri" : "data:application/octet-stream;base64,"
        }
    ]
}
