{
    "asset" : {
        "generator" : "Khronos glTF Blender I/O v3.2.43",
        "version" : "2.0"
    },
    "scene" : 0,
    "scenes" : [
        {
            "name" : "Scene",
            "nodes" : [
                0
            ]
        }
    ],
    "nodes" : [
        {
            "mesh" : 0,
            "name" : "Text",
            "rotation" : [
                0.7071068286895752,
                0,
                0,
                0.7071068286895752
            ]
        }
    ],
    "meshes" : [
        {
            "name" : "Text",
            "primitives" : [
                {
                    "attributes" : {
                        "POSITION" : 0,
                        "NORMAL" : 1,
                        "TEXCOORD_0" : 2
                    },
                    "indices" : 3
                }
            ]
        }
    ],
    "accessors" : [
        {
            "bufferView" : 0,
            "componentType" : 5126,
            "count" : 3910,
            "max" : [
                0.5651751160621643,
                0.05000000074505806,
                0.013186337426304817
            ],
            "min" : [
                0.008754863403737545,
                -0.05000000074505806,
                -0.6099221706390381
            ],
            "type" : "VEC3"
        },
        {
            "bufferView" : 1,
            "componentType" : 5126,
            "count" : 3910,
            "type" : "VEC3"
        },
        {
            "bufferView" : 2,
            "componentType" : 5126,
            "count" : 3910,
            "type" : "VEC2"
        },
        {
            "bufferView" : 3,
            "componentType" : 5123,
            "count" : 7212,
            "type" : "SCALAR"
        }
    ],
    "bufferViews" : [
        {
            "buffer" : 0,
            "byteLength" : 46920,
            "byteOffset" : 0
        },
        {
            "buffer" : 0,
            "byteLength" : 46920,
            "byteOffset" : 46920
        },
        {
            "buffer" : 0,
            "byteLength" : 31280,
            "byteOffset" : 93840
        },
        {
            "buffer" : 0,
            "byteLength" : 14424,
            "byteOffset" : 125120
        }
    ],
    "buffers" : [
        {
            "byteLength" : 139544,
            "uri" : "data:application/octet-stream;base64,"
        }
    ]
}
