{
    "asset" : {
        "generator" : "Khronos glTF Blender I/O v3.2.43",
        "version" : "2.0"
    },
    "scene" : 0,
    "scenes" : [
        {
            "name" : "Scene",
            "nodes" : [
                0
            ]
        }
    ],
    "nodes" : [
        {
            "mesh" : 0,
            "name" : "Text",
            "rotation" : [
                0.7071068286895752,
                0,
                0,
                0.7071068286895752
            ]
        }
    ],
    "meshes" : [
        {
            "name" : "Text",
            "primitives" : [
                {
                    "attributes" : {
                        "POSITION" : 0,
                        "NORMAL" : 1,
                        "TEXCOORD_0" : 2
                    },
                    "indices" : 3
                }
            ]
        }
    ],
    "accessors" : [
        {
            "bufferView" : 0,
            "componentType" : 5126,
            "count" : 1556,
            "max" : [
                0.47665369510650635,
                0.05000000074505806,
                0.008406965993344784
            ],
            "min" : [
                -0.002918287878856063,
                -0.05000000074505806,
                -0.6080644726753235
            ],
            "type" : "VEC3"
        },
        {
            "bufferView" : 1,
            "componentType" : 5126,
            "count" : 1556,
            "type" : "VEC3"
        },
        {
            "bufferView" : 2,
            "componentType" : 5126,
            "count" : 1556,
            "type" : "VEC2"
        },
        {
            "bufferView" : 3,
            "componentType" : 5123,
            "count" : 2916,
            "type" : "SCALAR"
        }
    ],
    "bufferViews" : [
        {
            "buffer" : 0,
            "byteLength" : 18672,
            "byteOffset" : 0
        },
        {
            "buffer" : 0,
            "byteLength" : 18672,
            "byteOffset" : 18672
        },
        {
            "buffer" : 0,
            "byteLength" : 12448,
            "byteOffset" : 37344
        },
        {
            "buffer" : 0,
            "byteLength" : 5832,
            "byteOffset" : 49792
        }
    ],
    "buffers" : [
        {
            "byteLength" : 55624,
            "uri" : "data:application/octet-stream;base64,"
        }
    ]
}
