{
    "asset" : {
        "generator" : "Khronos glTF Blender I/O v3.2.43",
        "version" : "2.0"
    },
    "scene" : 0,
    "scenes" : [
        {
            "name" : "Scene",
            "nodes" : [
                0
            ]
        }
    ],
    "nodes" : [
        {
            "mesh" : 0,
            "name" : "Text",
            "rotation" : [
                0.7071068286895752,
                0,
                0,
                0.7071068286895752
            ]
        }
    ],
    "meshes" : [
        {
            "name" : "Text",
            "primitives" : [
                {
                    "attributes" : {
                        "POSITION" : 0,
                        "NORMAL" : 1,
                        "TEXCOORD_0" : 2
                    },
                    "indices" : 3
                }
            ]
        }
    ],
    "accessors" : [
        {
            "bufferView" : 0,
            "componentType" : 5126,
            "count" : 2096,
            "max" : [
                0.40175098180770874,
                0.05000000074505806,
                0
            ],
            "min" : [
                0.01848248951137066,
                -0.05000000074505806,
                -0.6016536951065063
            ],
            "type" : "VEC3"
        },
        {
            "bufferView" : 1,
            "componentType" : 5126,
            "count" : 2096,
            "type" : "VEC3"
        },
        {
            "bufferView" : 2,
            "componentType" : 5126,
            "count" : 2096,
            "type" : "VEC2"
        },
        {
            "bufferView" : 3,
            "componentType" : 5123,
            "count" : 3636,
            "type" : "SCALAR"
        }
    ],
    "bufferViews" : [
        {
            "buffer" : 0,
            "byteLength" : 25152,
            "byteOffset" : 0
        },
        {
            "buffer" : 0,
            "byteLength" : 25152,
            "byteOffset" : 25152
        },
        {
            "buffer" : 0,
            "byteLength" : 16768,
            "byteOffset" : 50304
        },
        {
            "buffer" : 0,
            "byteLength" : 7272,
            "byteOffset" : 67072
        }
    ],
    "buffers" : [
        {
            "byteLength" : 74344,
            "uri" : "data:application/octet-stream;base64,"
        }
    ]
}
